<?xml version="1.0" encoding="utf-8" ?>
<svg xmlns="http://www.w3.org/2000/svg" xmlns:xlink="http://www.w3.org/1999/xlink" width="918" height="240">
	<path fill="#002E75" d="M890.177 173.383L890.762 173.482C891.846 175.191 891.097 207.444 891.089 212.279L884.158 212.194L883.296 211.705C882.729 207.55 883.127 202.942 883.141 198.741L883.236 173.534L890.177 173.383Z"/>
	<path fill="#002E75" d="M708.039 173.526L716.486 173.605C719.382 178.151 721.341 184.015 723.64 188.967L730.4 173.6L738.897 173.482L731.268 189.019C730.048 191.388 728.302 194.154 727.643 196.718C727.281 198.124 727.503 200.045 727.503 201.499L727.542 212.154L719.419 212.257C719.4 207.384 720.188 201.26 719.303 196.562C718.896 194.406 717.134 191.663 716.12 189.654L708.039 173.526Z"/>
	<path fill="#002E75" d="M813.343 173.536L821.362 173.503L829.334 198.353C831.11 190.269 833.5 181.008 836.856 173.475L844.812 173.524L841.306 184.349L832.122 211.95C830.963 212.633 827.635 212.329 826.197 212.364L813.343 173.536Z"/>
	<path fill="#002E75" d="M472.321 173.252C476.08 173.042 480.201 173.385 483.298 175.742C486.125 177.893 488.072 180.857 488.55 184.39C488.646 185.097 488.571 185.124 488.136 185.699C487.578 185.698 481.475 185.785 481.372 185.695C480.061 184.549 479.554 182.302 477.949 181.1C476.846 180.273 474.428 180.212 473.095 180.406C471.804 180.593 470.776 181.145 469.994 182.212C467.314 185.87 468 195.945 468.708 200.411C468.986 202.166 469.517 203.399 470.956 204.442C472.548 205.595 474.419 205.777 476.331 205.434C478.715 205.008 480.185 201.918 481.434 200.089C483.666 200.081 486.173 199.844 488.36 200.286C488.847 202.159 487.928 204.2 487.031 205.819C485.446 208.682 482.721 210.973 479.544 211.856C475.867 212.877 470.859 212.895 467.432 210.916C464.355 209.138 461.833 206.504 460.933 202.977C460.171 199.991 460.265 196.778 460.258 193.719C460.247 189.12 459.827 183.692 462.307 179.627C464.687 175.725 468.098 174.295 472.321 173.252Z"/>
	<path fill="#002E75" d="M247.397 173.254C251.204 173.131 254.653 173.29 257.963 175.476C261.75 177.977 263.118 181.534 263.995 185.743L256.238 185.698L255.057 183.586C254.371 182.49 253.192 180.95 251.876 180.654L251.688 180.614C249.953 180.22 247.951 180.251 246.34 181.095C245.104 181.742 244.399 182.844 243.999 184.154C242.73 188.319 242.43 198.871 244.529 202.791L244.638 202.991C245.001 203.671 245.35 204.152 246.016 204.564C247.537 205.506 249.8 205.879 251.539 205.393C253.917 204.729 255.087 202.072 256.275 200.106L264.272 200.244C263.624 202.156 263.013 204.248 261.95 205.975C260.199 208.823 257.433 211.205 254.121 211.961C249.512 213.014 245.141 212.596 241.096 210.05C238.033 208.122 236.381 205.348 235.606 201.835C235.071 199.411 235.295 196.575 235.294 194.095C235.292 189.066 234.738 183.454 237.591 179.022C239.822 175.556 243.564 174.099 247.397 173.254Z"/>
	<path fill="#002E75" d="M762.98 173.261C768.907 172.709 773.34 174.161 778.019 177.713L773.377 182.275C773.316 182.335 773.279 182.465 773.194 182.455C772.693 182.399 771.442 181.523 770.914 181.275C769.174 180.456 766.642 179.841 764.739 179.984C763.413 180.084 761.46 180.482 760.575 181.56C759.62 182.723 759.162 183.967 759.38 185.495C759.918 189.268 766.713 189.035 769.635 189.649C771.482 190.037 773.336 190.614 774.881 191.737C776.961 193.249 778.116 195.646 778.511 198.141C779.015 201.321 778.742 204.707 776.775 207.348C773.849 211.278 769.65 212.021 765.125 212.662C762.938 212.678 760.733 212.375 758.587 211.964C755.818 211.434 752.086 209.873 750.458 207.477L751.132 206.281C751.473 205.798 754.644 202.532 754.994 202.497C755.615 202.434 758.757 204.595 759.625 204.911C761.691 205.664 764.776 205.807 766.954 205.413C768.184 205.19 769.576 204.486 770.277 203.424C770.958 202.393 771.224 200.944 770.942 199.71C770.122 196.114 762.508 196.148 759.433 195.375C758.051 195.027 756.741 194.356 755.559 193.57C753.632 192.29 752.634 190.69 752.196 188.419C751.635 185.506 751.69 181.185 753.44 178.649C755.85 175.155 758.936 173.992 762.98 173.261Z"/>
	<path fill="#002E75" d="M426.714 173.279C432.46 172.574 436.948 174.269 441.548 177.53L441.41 177.721C440.591 178.83 438.113 181.855 436.97 182.401C436.351 182.697 434.768 181.395 434.231 181.11C432.775 180.337 429.258 179.799 427.582 180.074C426.183 180.304 424.737 180.739 423.889 181.96C422.763 183.583 422.971 184.572 423.284 186.393C426.796 190.477 433.941 188.534 438.545 191.77C440.577 193.199 441.843 195.417 442.254 197.851C442.772 200.921 442.557 204.424 440.66 207.01C437.655 211.109 433.629 211.885 428.94 212.602C422.654 212.316 418.882 211.454 413.644 207.76C414.958 205.685 416.913 204.056 418.691 202.388C420.949 203.843 422.925 205.159 425.651 205.467C427.937 205.726 431.162 205.85 433.012 204.311C434.143 203.371 434.676 201.948 434.82 200.523C434.52 199.839 434.176 198.612 433.736 198.056C432.39 196.359 426.663 196.229 424.455 195.745C422.557 195.328 420.776 194.667 419.166 193.557C416.871 191.974 415.836 189.655 415.347 186.981C414.793 183.959 415.631 180.617 417.401 178.114C419.686 174.883 423.042 173.915 426.714 173.279Z"/>
	<path fill="#002E75" d="M408.014 173.383L408.948 173.438L409.081 174.729L409.115 192.866C409.111 195.948 409.502 199.73 408.808 202.731C408.338 204.763 407.084 206.883 405.636 208.373C402.936 211.152 398.824 212.559 394.989 212.577C390.984 212.596 386.866 211.11 384.027 208.25C378.945 203.129 380.708 189.626 380.725 182.692L380.899 173.518L388.23 173.396C388.588 179.316 386.639 200.064 390.186 203.659C391.489 204.98 392.964 205.549 394.803 205.562C396.662 205.577 398.027 205.203 399.368 203.863C400.389 202.843 400.979 201.599 401.273 200.194C401.851 197.431 401.514 193.979 401.498 191.146L401.402 173.597L408.014 173.383Z"/>
	<path fill="#002E75" d="M645.338 173.499L671.047 173.47L671.039 180.659L653.159 180.774L653.181 189.248L668.374 188.976L668.403 196.445L653.151 196.404L653.174 205.317C659.108 205.15 665.142 205.72 671.04 205.004L671.092 212.199L645.354 212.277L645.338 173.499Z"/>
	<path fill="#002E75" d="M541.944 173.832C543.452 173.18 546.128 173.511 547.801 173.506C550.525 178.7 552.09 184.949 554.041 190.487L562.047 212.143L553.498 212.237C552.913 210.154 552.472 207.377 551.252 205.593L548.76 205.443L538.285 205.294L536.051 212.122L527.563 212.209L538.161 183.25C539.317 180.165 539.981 176.513 541.944 173.832ZM544.673 185.491L540.556 198.805L546.249 198.781L548.873 198.686C548.899 197.153 548.068 195.336 547.579 193.877L544.673 185.491Z"/>
	<path fill="#002E75" d="M279.254 173.495L285.255 173.566L299.497 211.993C297.07 212.604 293.524 212.125 290.975 212.076C290.406 209.985 289.985 207.533 288.983 205.615L286.181 205.432L275.517 205.443C275.146 207.645 274.285 209.827 273.593 211.949C272.178 212.725 266.872 212.137 265.034 212.115L279.254 173.495ZM282.092 186.393L279.103 195.265C278.761 196.246 278.028 197.704 278.134 198.699C279.717 198.998 281.505 198.805 283.117 198.762L286.203 198.923C286.779 197.508 283.41 188.636 282.625 186.53L282.092 186.393Z"/>
	<path fill="#002E75" d="M795.331 173.832C797.107 173.239 798.95 173.459 800.785 173.575C802.896 174.885 804.894 182.901 805.791 185.426L815.511 212.238L807.292 212.236L804.953 205.571L802.466 205.44L791.775 205.433L789.757 211.813C788.462 212.688 783.031 212.147 781.21 212.141L790.021 187.759C791.632 183.293 792.797 177.826 795.331 173.832ZM798.501 185.523L794.061 198.553C795.035 199.05 796.281 198.835 797.343 198.779L802.129 198.822L802.468 198.28L798.501 185.523Z"/>
	<path fill="#002E75" d="M918 212.236L899.684 212.338L899.724 173.522L918 173.542L918 180.686L918 189.2L918 196.431L918 205.268L918 212.236ZM918 205.268L918 196.431L907.719 196.396L907.856 205.044L918 205.268ZM918 189.2L918 180.686L907.656 180.842L907.793 189.006L918 189.2Z"/>
	<path fill="#002E75" d="M494.993 173.512L503.044 173.579L503.014 189.263L515.385 189.227L515.211 173.482L523.571 173.462L523.581 212.184L515.336 212.295L515.387 196.153L502.971 196.163L502.965 212.21L494.915 212.209L494.993 173.512Z"/>
	<path fill="#002E75" d="M347.348 173.482C351.648 173.736 356.084 173.506 360.401 173.541C363.111 173.563 365.696 173.45 368.243 174.556C370.99 175.75 373.52 178.143 374.588 180.983C375.815 184.245 375.786 187.712 374.309 190.887C373.149 193.38 370.638 195.953 368.008 196.876C366.091 197.549 364.316 197.688 362.292 197.785L355.428 197.849L355.5 212.154L347.367 212.291L347.348 173.482ZM355.427 180.74L355.423 190.784C358.725 190.704 363.32 191.339 365.99 189.268C367.137 187.614 367.497 186.26 367.141 184.201C366.934 183.008 366.261 182 365.234 181.339C363.306 180.099 357.8 180.692 355.427 180.74Z"/>
	<path fill="#002E75" d="M678.099 173.535C683.93 173.525 691.669 172.646 697.239 173.992C700.071 174.676 702.573 176.558 704.086 179.052C705.66 181.65 706.305 185.337 705.556 188.286C704.634 191.918 702.027 193.977 698.972 195.799L707.426 212.088L698.173 212.106L690.87 196.997L685.764 196.948L685.838 212.186L677.93 212.292L678.099 173.535ZM685.753 180.653L685.765 190.279C688.673 190.282 694.493 190.983 696.614 188.879L696.792 188.692C697.669 187.325 698.219 185.97 697.848 184.319C697.552 183.003 696.93 182.143 695.896 181.296C693.269 180.135 688.668 180.665 685.753 180.653Z"/>
	<path fill="#002E75" d="M303.943 173.513L311.138 173.6C312.502 174.95 313.333 177.271 314.228 178.981L321.336 193.235L327.267 181.15C328.266 179.058 329.394 175.656 330.951 173.983C331.643 173.241 337.423 173.49 338.738 173.467L338.739 212.192L331.018 212.261L331.064 206.467L330.994 190.216L326.095 199.932C325.549 200.94 324.916 202.468 323.956 203.131C323.009 203.784 320.638 203.853 319.537 203.567C317.514 203.041 312.913 192.914 311.543 190.49L311.592 212.183C309.617 212.221 305.723 212.74 303.953 212.112L303.943 173.513Z"/>
	<path fill="#002E75" d="M566.141 173.423L573.688 173.549C577.82 179.526 580.648 186.763 583.73 193.339C587.173 186.864 589.757 179.781 593.705 173.59L601.415 173.364L601.477 212.25L593.441 212.267L593.449 204.897L593.528 190.235L589.004 199.178C588.291 200.594 587.639 202.292 586.369 203.295C585.522 203.964 582.546 203.548 581.491 203.439C578.945 201.765 575.936 193.661 574.324 190.769C573.835 192.374 574.201 195.13 574.208 196.848L574.288 212.271L566.19 212.465L566.141 173.423Z"/>
	<path fill="#002E75" d="M859.132 173.265C862.615 173.109 866.253 173.173 869.295 175.113C872.827 177.366 874.741 180.203 875.601 184.274C876.107 186.673 875.933 189.347 875.937 191.791C875.944 196.372 876.49 202.31 873.854 206.292C871.439 209.942 868.026 211.569 863.905 212.438C859.897 212.787 856.28 212.183 852.857 210C849.913 208.121 848.416 205.37 847.68 202.031C847.087 199.344 847.169 196.506 847.163 193.765C847.152 188.878 846.823 183.219 849.586 178.951C851.719 175.656 855.445 174.031 859.132 173.265ZM859.463 180.561C857.848 181.155 856.836 181.905 856.102 183.504C854.519 186.954 854.593 198.318 855.934 201.885C856.467 203.302 857.627 204.484 859.014 205.083C860.287 205.633 862.357 205.783 863.648 205.215L863.987 205.049C865.721 203.949 866.958 203.114 867.411 201.021C868.337 196.739 869.027 186.38 866.604 182.728C865.732 181.413 864.417 180.741 862.897 180.466C861.741 180.256 860.614 180.388 859.463 180.561Z"/>
	<path fill="#002E75" d="M610.064 173.435C617.054 174.133 628.952 171.379 634.383 176.43C636.322 178.233 637.395 181.042 637.482 183.651C637.622 187.836 636.209 189.563 633.523 192.45C634.856 193.526 636.527 194.792 637.207 196.422C638.686 199.965 638.231 203.709 636.738 207.116L636.163 207.888C632.274 212.527 627.613 212.149 622.105 212.176C618.089 212.196 614.082 212.095 610.079 212.479L610.064 173.435ZM617.645 196.249C617.667 198.486 617.125 203.345 617.953 205.245C620.515 205.278 626.806 205.992 628.66 204.252C629.683 202.955 630.321 201.923 630.135 200.187C629.991 198.836 629.593 198.03 628.66 197.049C625.206 195.667 621.281 196.13 617.645 196.249ZM617.728 180.766L617.749 188.821C619.672 189.463 625.798 189.531 627.602 188.545C627.983 188.337 628.285 188.062 628.569 187.738C629.176 186.639 629.985 185.4 629.624 184.1C629.29 182.899 628.808 181.743 627.667 181.156C625.482 180.033 620.239 180.693 617.728 180.766Z"/>
	<path fill="#002E75" d="M237.167 27.0306L261.422 26.9509L261.584 149.871L237.096 149.9L237.167 27.0306Z"/>
	<path fill="#002E75" d="M918 130.552L912.111 136.6C899.813 147.962 879.35 153.048 862.981 152.39C844.442 151.645 825.373 146.173 812.409 132.076C799.603 118.152 795.199 101.83 796.011 83.215C796.666 68.2256 804.103 53.2387 815.132 43.2153C829.706 29.9689 850.062 24.6021 869.411 25.6056C883.996 26.362 898.261 31.5767 909.505 40.9853C912.614 43.5865 915.299 46.6671 918 49.6784L918 64.1908L905.517 69.9284C897.647 58.9936 888.945 50.2917 875.057 48.0494C861.132 45.8011 846.089 48.0286 834.505 56.4401C825.863 62.7157 820.912 72.1364 819.245 82.5584C817.491 93.5177 820.132 104.534 826.638 113.465C833.135 122.384 844.764 128.589 855.57 130.219C868.5 132.168 884.239 130.058 894.946 122.072C899.653 118.561 902.321 114.571 905.728 109.929L918 115.952L918 130.552Z"/>
	<path fill="#002E75" d="M472.66 27.0854L477.491 26.8397C497.597 26.2011 519.24 32.6856 534.048 46.5831L517.908 59.1342C517.793 59.2165 517.072 59.7738 517.006 59.7731C516.58 59.7685 510.816 55.0676 509.821 54.4853C501.338 49.5168 491.118 46.8163 481.305 46.7023C473.272 46.609 461.599 47.7038 455.592 53.6584C453.447 55.7843 452.408 58.3748 452.409 61.4032C452.41 64.2035 454.033 67.6487 456.374 69.2219C460.319 71.8735 466.067 72.5396 470.658 73.4374L493.404 77.3224C499.149 78.2377 505.005 79.0113 510.551 80.8358C516.917 82.9307 522.441 86.2711 527.184 90.9906C532.894 96.6716 534.514 105.689 534.508 113.435C534.5 123.663 531.055 132.127 523.841 139.321C512.638 150.496 495.848 151.961 480.939 151.94L470.334 151.235C458.678 149.781 444.812 145.799 435.237 138.8C430.757 135.525 427.223 131.611 423.829 127.257L442.399 114.437L447.958 119.935C458.003 128.429 474.992 132.978 487.978 131.868C495.181 131.252 503.051 129.575 507.918 123.744C510.664 120.454 512.187 116.617 511.772 112.268C511.297 107.289 508.206 103.584 503.732 101.495C498.767 99.1758 493.064 98.7544 487.688 98.1143C475.483 96.6613 462.811 96.0065 451.167 91.7734C447.232 90.3431 443.364 88.6564 440.133 85.9344C433.313 80.1878 430.25 73.3229 429.541 64.5236C428.911 56.7232 431.801 48.136 436.827 42.2151C445.771 31.679 459.395 28.1603 472.66 27.0854Z"/>
	<path fill="#002E75" d="M554.088 27.0345L654.079 26.9772L654.15 48.5361L568.914 48.4607L573.771 53.9315C574.368 54.5888 575.492 55.523 575.905 56.2752C576.203 56.8176 576.165 59.0025 576.212 59.6948C576.588 65.2929 576.368 71.0584 576.363 76.6732L643.6 76.6071L643.658 97.8705L595.042 97.8389L576.305 97.8863L576.318 128.327L657.712 128.317L657.619 149.854L554.085 149.965L554.088 27.0345Z"/>
	<path fill="#002E75" d="M679.109 27.0161L779.081 26.965L779.089 48.6987C770.494 47.8141 761.123 48.5145 752.451 48.512L693.953 48.4679C696.038 50.9259 699.189 53.5419 700.761 56.2745C702.361 59.0558 701.451 72.7035 701.437 76.655L768.38 76.608L768.624 97.8761L720.101 97.8389L701.428 97.9039L701.434 128.324L782.78 128.317C783.616 129.927 782.937 146.473 782.957 149.879L679.07 149.909L679.109 27.0161Z"/>
	<path fill="#002E75" d="M283.207 27.0253L312.981 27.1499C315.731 28.8723 318.32 32.7275 320.375 35.2787L329.903 46.7061L382.802 109.392C382.35 106.164 382.542 102.756 382.543 99.4955L382.552 83.4241L382.475 27.0645L405.663 26.9932L405.625 149.7C404.952 150.17 403.029 149.93 402.186 149.928L391.652 149.876L386.742 149.797C384.026 147.786 381.613 144.088 379.437 141.465L365.834 125.179L306.345 53.98L306.074 54.0791L305.922 149.786L283.11 149.882L283.207 27.0253Z"/>
	<path fill="#002E75" d="M0 167.057C3.60843 156.791 7.52508 147.724 12.6686 138.144C13.6443 136.326 15.5 132.105 17.3478 131.215C15.2702 135.83 12.4999 140.152 10.3816 144.769C4.70473 157.141 1.2121 173.152 6.16758 186.296C8.3867 192.182 12.9528 197.44 18.7192 200.01C32.914 206.337 51.0738 201.562 64.8919 196.216C86.6375 187.803 105.737 173.185 121.983 156.602C127.129 151.349 132.047 145.783 136.457 139.894L141.913 132.16C142.368 131.5 143.184 130.008 143.921 129.688C144.332 129.509 145.993 129.675 146.51 129.672L154.822 129.637L194.978 129.602L203.029 129.605C203.802 129.606 205.344 129.416 206.026 129.655L206.295 129.807C182.168 167.988 147.185 198.869 107.868 220.708C96.6229 226.954 83.7941 233.343 71.1868 236.203L58.454 238.674C55.5811 239.092 52.3484 239.07 49.5985 240L39.1584 240L-0 240L0 217.952L0 167.057ZM0 217.952L-0 240L39.1584 240C37.3843 239.316 35.2553 239.224 33.3791 238.956C29.9893 238.47 26.5814 237.993 23.255 237.162C12.6813 234.52 5.41171 226.998 0 217.952Z"/>
	<path fill="#002E75" d="M0 67.729L-0 -0L117.599 0L138.337 0C141.351 0.811486 144.41 1.06391 147.408 1.82423C157.492 4.38213 166.301 10.3781 171.563 19.5143C180.769 35.5007 177.822 53.3934 173.232 70.3397C169.752 83.1859 163.393 96.8216 155.764 107.721L155.542 107.215C164.112 93.4907 171.659 74.3699 167.958 57.9609C166.484 51.4245 162.373 44.7713 156.664 41.1962C146.992 35.1394 135.505 35.8624 124.782 38.3716C111.913 41.3831 98.7301 46.3022 87.3162 53.0842C76.7322 59.3731 66.7344 67.8183 57.7803 76.1845C52.3574 81.2513 46.8694 86.3756 42.1646 92.1402C39.639 95.2347 36.9607 98.3568 34.647 101.608L30.2869 108.125C30.0404 108.473 29.4319 109.536 29.1003 109.683C27.4867 110.394 23.6175 109.926 21.7763 109.93L0 109.914L0 67.729ZM0 67.729C16.9746 49.0531 38.9942 33.3332 60.8601 20.9501C71.307 15.0337 81.9856 9.45097 93.3955 5.58495C101.353 2.88872 109.494 1.89389 117.599 0L-0 -0L0 67.729Z"/>
</svg>
