<svg width="372" height="93" viewBox="0 0 372 93" fill="none" xmlns="http://www.w3.org/2000/svg">
<g clip-path="url(#clip0_998_56)">
<path d="M358.478 67.1855L358.705 67.2239C359.126 67.8861 358.835 80.3842 358.832 82.2578L356.141 82.2248L355.806 82.0353C355.586 80.4253 355.74 78.6397 355.746 77.0118L355.783 67.2441L358.478 67.1855Z" fill="#002E75"/>
<path d="M287.752 67.2417L291.032 67.2723C292.157 69.0338 292.917 71.3061 293.81 73.225L296.435 67.2703L299.734 67.2246L296.772 73.2452C296.298 74.1632 295.62 75.235 295.364 76.2286C295.224 76.7734 295.31 77.5178 295.31 78.0812L295.325 82.21L292.171 82.2499C292.164 80.3616 292.47 77.9886 292.126 76.1681C291.968 75.3327 291.284 74.2698 290.89 73.4913L287.752 67.2417Z" fill="#002E75"/>
<path d="M328.643 67.2443L331.756 67.2316L334.852 76.8609C335.542 73.7284 336.47 70.1397 337.773 67.2207L340.862 67.2397L339.501 71.4344L335.935 82.1298C335.485 82.3944 334.192 82.2766 333.634 82.2902L328.643 67.2443Z" fill="#002E75"/>
<path d="M196.221 67.1355C197.68 67.0542 199.28 67.1871 200.483 68.1004C201.581 68.9339 202.337 70.0825 202.522 71.4515C202.56 71.7255 202.531 71.7359 202.362 71.9587C202.145 71.9584 199.775 71.9921 199.735 71.9572C199.226 71.5131 199.029 70.6424 198.406 70.1766C197.978 69.8562 197.039 69.8325 196.521 69.9077C196.02 69.9802 195.621 70.1941 195.317 70.6075C194.276 72.025 194.543 75.9291 194.818 77.6596C194.926 78.3397 195.132 78.8175 195.691 79.2217C196.309 79.6684 197.035 79.739 197.778 79.6061C198.703 79.441 199.274 78.2436 199.759 77.5349C200.626 77.5318 201.599 77.4399 202.449 77.6112C202.638 78.337 202.281 79.1279 201.933 79.7552C201.317 80.8647 200.259 81.7524 199.025 82.0946C197.598 82.4902 195.653 82.4972 194.322 81.7303C193.127 81.0414 192.148 80.0207 191.799 78.654C191.503 77.4969 191.539 76.2518 191.536 75.0665C191.532 73.2844 191.369 71.181 192.332 69.6058C193.256 68.0938 194.581 67.5397 196.221 67.1355Z" fill="#002E75"/>
<path d="M108.881 67.1348C110.359 67.0872 111.698 67.1488 112.983 67.9959C114.454 68.965 114.985 70.3433 115.326 71.9743L112.314 71.9569L111.855 71.1385C111.589 70.7138 111.131 70.117 110.62 70.0023L110.547 69.9868C109.873 69.8342 109.096 69.8462 108.47 70.1732C107.99 70.4239 107.716 70.851 107.561 71.3586C107.068 72.9725 106.952 77.0614 107.767 78.5804L107.809 78.6579C107.95 78.9214 108.086 79.1078 108.344 79.2675C108.935 79.6325 109.814 79.777 110.489 79.5887C111.412 79.3314 111.867 78.3018 112.328 77.54L115.433 77.5935C115.182 78.3344 114.944 79.145 114.532 79.8142C113.852 80.9178 112.778 81.8408 111.492 82.1338C109.702 82.5418 108.005 82.3799 106.434 81.3933C105.244 80.6462 104.603 79.5713 104.302 78.21C104.094 77.2707 104.181 76.1717 104.181 75.2107C104.18 73.262 103.965 71.0873 105.073 69.3699C105.939 68.0269 107.392 67.4623 108.881 67.1348Z" fill="#002E75"/>
<path d="M309.086 67.1378C311.388 66.9239 313.109 67.4866 314.926 68.863L313.123 70.6308C313.1 70.654 313.085 70.7044 313.052 70.7005C312.858 70.6788 312.372 70.3394 312.167 70.2433C311.491 69.9259 310.508 69.6876 309.769 69.743C309.254 69.7818 308.496 69.936 308.152 70.3537C307.781 70.8044 307.603 71.2864 307.688 71.8785C307.897 73.3406 310.536 73.2503 311.67 73.4882C312.387 73.6385 313.107 73.8621 313.707 74.2973C314.515 74.8832 314.963 75.812 315.117 76.7788C315.313 78.0111 315.207 79.3232 314.443 80.3466C313.307 81.8694 311.676 82.1573 309.919 82.4057C309.07 82.4119 308.213 82.2945 307.38 82.1353C306.305 81.9299 304.856 81.325 304.224 80.3965L304.485 79.9331C304.618 79.7459 305.849 78.4804 305.985 78.4668C306.226 78.4424 307.446 79.2798 307.783 79.4022C308.586 79.694 309.783 79.7494 310.629 79.5967C311.107 79.5103 311.647 79.2375 311.92 78.826C312.184 78.4265 312.287 77.865 312.178 77.3868C311.859 75.9934 308.903 76.0066 307.709 75.707C307.172 75.5722 306.663 75.3122 306.204 75.0076C305.456 74.5116 305.069 73.8916 304.899 73.0116C304.681 71.8828 304.702 70.2084 305.382 69.2257C306.317 67.8718 307.516 67.4211 309.086 67.1378Z" fill="#002E75"/>
<path d="M178.511 67.1452C180.742 66.872 182.485 67.5289 184.271 68.7925L184.218 68.8665C183.9 69.2962 182.938 70.4684 182.494 70.68C182.253 70.7947 181.639 70.2902 181.43 70.1797C180.865 69.8802 179.499 69.6717 178.848 69.7783C178.305 69.8674 177.744 70.036 177.414 70.5091C176.977 71.138 177.058 71.5213 177.179 72.2269C178.543 73.8095 181.318 73.0565 183.105 74.3105C183.894 74.8642 184.386 75.7237 184.546 76.6669C184.747 77.8565 184.663 79.2139 183.927 80.216C182.76 81.8044 181.196 82.1051 179.376 82.3829C176.935 82.2721 175.47 81.938 173.436 80.5066C173.946 79.7026 174.705 79.0713 175.396 78.425C176.273 78.9888 177.04 79.4987 178.098 79.6181C178.986 79.7184 180.238 79.7665 180.957 79.1701C181.396 78.8059 181.603 78.2545 181.659 77.7023C181.542 77.4372 181.409 76.9618 181.238 76.7463C180.715 76.0887 178.491 76.0384 177.634 75.8508C176.897 75.6892 176.205 75.4331 175.58 75.003C174.689 74.3895 174.287 73.4909 174.097 72.4548C173.882 71.2837 174.208 69.9887 174.895 69.0188C175.782 67.7668 177.085 67.3917 178.511 67.1452Z" fill="#002E75"/>
<path d="M171.25 67.1855L171.613 67.2069L171.664 67.7071L171.677 74.7352C171.676 75.9295 171.828 77.395 171.558 78.5579C171.376 79.3453 170.889 80.1668 170.326 80.7442C169.278 81.821 167.681 82.3662 166.192 82.3732C164.637 82.3806 163.038 81.8048 161.936 80.6965C159.962 78.7121 160.647 73.4797 160.653 70.7928L160.721 67.2379L163.568 67.1906C163.707 69.4846 162.95 77.5244 164.327 78.9175C164.833 79.4294 165.406 79.6499 166.12 79.6549C166.842 79.6607 167.372 79.5158 167.893 78.9966C168.289 78.6013 168.518 78.1192 168.632 77.5748C168.857 76.5041 168.726 75.1665 168.72 74.0687L168.682 67.2685L171.25 67.1855Z" fill="#002E75"/>
<path d="M263.405 67.2319L273.388 67.2207L273.385 70.0064L266.442 70.051L266.45 73.3347L272.35 73.2293L272.361 76.1235L266.439 76.1076L266.448 79.5614C268.752 79.4967 271.095 79.7176 273.385 79.4401L273.405 82.2282L263.411 82.2584L263.405 67.2319Z" fill="#002E75"/>
<path d="M223.256 67.3603C223.842 67.1077 224.881 67.2359 225.53 67.234C226.588 69.2467 227.196 71.6681 227.954 73.8141L231.062 82.2058L227.743 82.2422C227.516 81.4351 227.344 80.359 226.871 79.6677L225.903 79.6096L221.835 79.5518L220.968 82.1977L217.672 82.2314L221.787 71.0098C222.236 69.8143 222.494 68.3992 223.256 67.3603ZM224.316 71.8782L222.717 77.0373L224.928 77.028L225.947 76.9912C225.957 76.3972 225.634 75.6931 225.444 75.1277L224.316 71.8782Z" fill="#002E75"/>
<path d="M121.251 67.2285L123.581 67.256L129.112 82.1465C128.169 82.3833 126.792 82.1976 125.803 82.1787C125.582 81.3684 125.418 80.4182 125.029 79.675L123.941 79.6041L119.8 79.6084C119.656 80.4616 119.322 81.3072 119.053 82.1294C118.504 82.4301 116.443 82.2023 115.729 82.1938L121.251 67.2285ZM122.353 72.2265L121.193 75.6644C121.06 76.0445 120.775 76.6095 120.816 76.9951C121.431 77.1109 122.125 77.0361 122.751 77.0195L123.95 77.0819C124.173 76.5336 122.865 73.0957 122.56 72.2796L122.353 72.2265Z" fill="#002E75"/>
<path d="M321.648 67.3599C322.338 67.1301 323.054 67.2154 323.766 67.2603C324.586 67.768 325.362 70.8742 325.71 71.8526L329.484 82.2423L326.293 82.2415L325.385 79.6588L324.419 79.608L320.268 79.6053L319.484 82.0776C318.981 82.4166 316.872 82.207 316.165 82.2047L319.586 72.7566C320.212 71.0261 320.664 68.9076 321.648 67.3599ZM322.879 71.8902L321.155 76.9393C321.533 77.1319 322.017 77.0486 322.43 77.0269L324.288 77.0436L324.42 76.8335L322.879 71.8902Z" fill="#002E75"/>
<path d="M369.282 82.2419L362.169 82.2814L362.185 67.2402L369.282 67.248V70.0163V73.3155V76.1175V79.5418V82.2419ZM369.282 79.5418V76.1175L365.289 76.1039L365.343 79.455L369.282 79.5418ZM369.282 73.3155V70.0163L365.265 70.0767L365.318 73.2403L369.282 73.3155Z" fill="#002E75"/>
<path d="M205.024 67.2362L208.151 67.2621L208.139 73.3397L212.943 73.3257L212.875 67.2245L216.122 67.2168L216.125 82.2216L212.924 82.2646L212.944 76.0096L208.122 76.0134L208.12 82.2316L204.994 82.2313L205.024 67.2362Z" fill="#002E75"/>
<path d="M147.692 67.2246C149.362 67.323 151.085 67.2339 152.761 67.2475C153.813 67.256 154.817 67.2122 155.806 67.6408C156.873 68.1035 157.855 69.0307 158.27 70.1312C158.746 71.3953 158.735 72.7387 158.162 73.969C157.711 74.9351 156.736 75.9321 155.715 76.2898C154.97 76.5506 154.281 76.6044 153.495 76.642L150.83 76.6668L150.858 82.21L147.7 82.2631L147.692 67.2246ZM150.83 70.0371L150.828 73.9291C152.11 73.8981 153.894 74.1442 154.931 73.3417C155.377 72.7008 155.516 72.1761 155.378 71.3782C155.298 70.9159 155.036 70.5253 154.638 70.2692C153.889 69.7887 151.751 70.0185 150.83 70.0371Z" fill="#002E75"/>
<path d="M276.126 67.2456C278.39 67.2418 281.396 66.9011 283.558 67.4227C284.658 67.6878 285.63 68.417 286.217 69.3835C286.828 70.3902 287.079 71.8189 286.788 72.9616C286.43 74.369 285.418 75.1669 284.231 75.8729L287.514 82.1849L283.921 82.1919L281.085 76.3372L279.103 76.3182L279.131 82.2229L276.061 82.264L276.126 67.2456ZM279.098 70.0039L279.103 73.7339C280.232 73.7351 282.492 74.0067 283.316 73.1914L283.385 73.119C283.725 72.5893 283.939 72.0642 283.795 71.4244C283.68 70.9145 283.438 70.5812 283.037 70.253C282.017 69.8031 280.23 70.0085 279.098 70.0039Z" fill="#002E75"/>
<path d="M130.838 67.2374L133.632 67.2711C134.161 67.7942 134.484 68.6936 134.832 69.3563L137.592 74.8797L139.895 70.1967C140.283 69.3861 140.721 68.0678 141.325 67.4195C141.594 67.132 143.838 67.2285 144.349 67.2196L144.349 82.2255L141.351 82.2523L141.369 80.0071L141.342 73.7098L139.44 77.4748C139.228 77.8654 138.982 78.4575 138.609 78.7144C138.241 78.9674 137.321 78.9942 136.893 78.8833C136.108 78.6795 134.321 74.7553 133.789 73.816L133.808 82.222C133.041 82.2368 131.529 82.4379 130.842 82.1945L130.838 67.2374Z" fill="#002E75"/>
<path d="M232.652 67.2006L235.582 67.2494C237.187 69.5655 238.285 72.3698 239.482 74.918C240.819 72.409 241.822 69.6643 243.355 67.2653L246.349 67.1777L246.373 82.2461L243.253 82.2526L243.256 79.3968L243.286 73.7152L241.53 77.1807C241.253 77.7294 241 78.3873 240.507 78.776C240.178 79.0352 239.022 78.874 238.612 78.8318C237.624 78.1831 236.455 75.0428 235.829 73.9222C235.639 74.5441 235.782 75.6121 235.784 76.2778L235.815 82.2542L232.671 82.3294L232.652 67.2006Z" fill="#002E75"/>
<path d="M346.423 67.14C347.775 67.0796 349.188 67.1044 350.369 67.8562C351.741 68.7292 352.484 69.8285 352.818 71.406C353.015 72.3356 352.947 73.3718 352.949 74.3189C352.951 76.094 353.163 78.395 352.14 79.938C351.202 81.3524 349.877 81.9829 348.276 82.3196C346.72 82.4548 345.316 82.2208 343.986 81.3749C342.843 80.6467 342.262 79.5807 341.976 78.2869C341.746 77.2457 341.778 76.1459 341.775 75.0838C341.771 73.1901 341.643 70.9972 342.716 69.3434C343.544 68.0666 344.991 67.4369 346.423 67.14ZM346.552 69.9673C345.924 70.1974 345.531 70.488 345.246 71.1077C344.632 72.4445 344.66 76.8481 345.181 78.2303C345.388 78.7794 345.839 79.2374 346.377 79.4695C346.871 79.6826 347.675 79.7408 348.177 79.5207L348.308 79.4563C348.982 79.0301 349.462 78.7065 349.638 77.8955C349.997 76.2362 350.265 72.2221 349.324 70.807C348.986 70.2974 348.475 70.037 347.885 69.9304C347.436 69.8491 346.998 69.9002 346.552 69.9673Z" fill="#002E75"/>
<path d="M249.708 67.2051C252.422 67.4756 257.042 66.4084 259.151 68.3657C259.904 69.0643 260.32 70.1528 260.354 71.1638C260.409 72.7855 259.86 73.4547 258.817 74.5734C259.334 74.9904 259.983 75.4809 260.247 76.1126C260.822 77.4855 260.645 78.9363 260.065 80.2565L259.842 80.5556C258.332 82.3533 256.522 82.2068 254.383 82.2172C252.824 82.225 251.268 82.1859 249.713 82.3347L249.708 67.2051ZM252.651 76.0455C252.66 76.9124 252.449 78.7952 252.771 79.5315C253.766 79.5443 256.209 79.8209 256.928 79.1467C257.326 78.6441 257.573 78.2442 257.501 77.5715C257.445 77.048 257.291 76.7357 256.928 76.3555C255.587 75.82 254.063 75.9994 252.651 76.0455ZM252.684 70.0459L252.692 73.1672C253.438 73.416 255.817 73.4423 256.518 73.0602C256.666 72.9796 256.783 72.8731 256.893 72.7475C257.129 72.3217 257.443 71.8415 257.303 71.3378C257.173 70.8724 256.986 70.4245 256.543 70.197C255.694 69.7618 253.659 70.0176 252.684 70.0459Z" fill="#002E75"/>
<path d="M104.908 10.4742L114.327 10.4434L114.39 58.0748L104.881 58.086L104.908 10.4742Z" fill="#002E75"/>
<path d="M196.352 10.4966L198.228 10.4014C206.035 10.1539 214.44 12.6667 220.19 18.052L213.922 22.9155C213.878 22.9474 213.598 23.1634 213.572 23.1631C213.407 23.1613 211.168 21.3397 210.782 21.1141C207.488 19.1888 203.52 18.1423 199.709 18.0982C196.59 18.062 192.057 18.4862 189.724 20.7936C188.892 21.6174 188.488 22.6212 188.488 23.7947C188.489 24.8799 189.119 26.2149 190.028 26.8245C191.56 27.852 193.792 28.1101 195.575 28.458L204.407 29.9634C206.638 30.3181 208.912 30.6179 211.066 31.3249C213.538 32.1367 215.683 33.4311 217.524 35.2599C219.742 37.4613 220.371 40.9555 220.368 43.957C220.365 47.9204 219.027 51.2002 216.226 53.9879C211.876 58.3182 205.356 58.8859 199.567 58.8777L195.449 58.6045C190.923 58.0411 185.539 56.4981 181.82 53.786C180.081 52.5169 178.709 51.0002 177.391 49.3131L184.602 44.3453L186.76 46.4758C190.661 49.7672 197.258 51.5299 202.3 51.0998C205.097 50.8611 208.153 50.2113 210.043 47.9518C211.109 46.6769 211.701 45.1901 211.54 43.5048C211.355 41.5755 210.155 40.1398 208.418 39.3303C206.49 38.4316 204.275 38.2683 202.188 38.0203C197.448 37.4573 192.528 37.2035 188.006 35.5632C186.478 35.009 184.976 34.3554 183.722 33.3006C181.073 31.0738 179.884 28.4136 179.609 25.0039C179.364 21.9812 180.486 18.6537 182.438 16.3594C185.911 12.2766 191.201 10.9131 196.352 10.4966Z" fill="#002E75"/>
<path d="M227.971 10.4753L266.799 10.4531L266.826 18.8072L233.728 18.778L235.614 20.8979C235.846 21.1526 236.283 21.5146 236.443 21.8061C236.559 22.0163 236.544 22.8629 236.562 23.1312C236.708 25.3005 236.623 27.5346 236.621 29.7103L262.73 29.6847L262.752 37.9243L243.874 37.912L236.598 37.9304L236.603 49.726L268.209 49.7221L268.173 58.0677L227.97 58.1107L227.971 10.4753Z" fill="#002E75"/>
<path d="M276.518 10.469L315.338 10.4492L315.341 18.871C312.004 18.5282 308.365 18.7996 304.997 18.7987L282.282 18.7816C283.092 19.7341 284.315 20.7478 284.926 21.8066C285.547 22.8844 285.194 28.1729 285.188 29.7041L311.183 29.6859L311.278 37.9273L292.436 37.9129L285.185 37.938L285.187 49.7259L316.774 49.7232C317.099 50.3471 316.835 56.7586 316.843 58.0785L276.503 58.0901L276.518 10.469Z" fill="#002E75"/>
<path d="M122.786 10.4734L134.348 10.5217C135.416 11.1891 136.421 12.683 137.219 13.6716L140.919 18.0997L161.46 42.3905C161.284 41.1397 161.359 39.8191 161.359 38.5556L161.363 32.3279L161.333 10.4886L170.337 10.4609L170.322 58.0099C170.061 58.192 169.314 58.099 168.987 58.0982L164.896 58.0781L162.99 58.0474C161.935 57.2682 160.998 55.8352 160.153 54.8188L154.871 48.508L131.771 20.9183L131.666 20.9567L131.607 58.0432L122.749 58.0804L122.786 10.4734Z" fill="#002E75"/>
<path d="M92.8058 50.4254C86.2722 60.5205 78.0319 69.3947 68.4558 76.6479C53.4713 87.6231 38.2896 95.6718 22.7135 92.1715C17.9618 91.0838 10.2921 86.0014 11.1201 74.2349C12.0587 65.6634 15.1374 57.4674 20.0715 50.4056C20.0715 50.4056 9.85827 65.6723 16.6605 74.9669C23.7782 84.6567 43.8692 74.1361 47.2211 71.8421C47.2211 71.8421 61.1804 62.7851 68.6332 50.4847L92.8058 50.4056V50.4254ZM0 42.6537C6.56561 32.5484 14.7874 23.6494 24.3894 16.3523C39.3345 5.37691 54.5361 -2.67173 70.0925 0.828533C74.8442 1.87664 82.5137 6.95892 81.6264 18.7254C80.7391 27.3277 77.6831 35.5543 72.754 42.6537C72.754 42.6537 82.9673 27.4266 76.1454 18.1519C69.0475 8.48164 48.9366 19.0022 45.5848 21.2764C45.5848 21.2764 31.6451 30.3335 24.1725 42.6339L0 42.6537Z" fill="#002E75"/>
<path d="M371.854 46.8119C370.911 48.9048 369.607 50.809 368.004 52.4349C366.399 54.0307 364.538 55.404 362.531 56.4432C360.433 57.5569 358.189 58.3548 355.872 58.8558C353.427 59.4127 350.945 59.6723 348.428 59.6723C344.714 59.7219 341.023 59.0806 337.536 57.7793C334.434 56.5917 331.606 54.8103 329.18 52.509C326.864 50.277 325.031 47.578 323.797 44.585C322.52 41.4299 321.863 38.0712 321.918 34.6751C321.817 31.2038 322.479 27.7533 323.855 24.575C325.231 21.3967 327.287 18.5707 329.873 16.303C332.37 14.1334 335.249 12.4647 338.357 11.3853C341.623 10.2532 345.053 9.67793 348.501 9.69649C353.427 9.5666 358.298 10.8471 362.549 13.3709C366.563 15.8205 369.829 19.3465 372 23.5591L364.428 27.0294C363.571 25.6932 362.604 24.4499 361.528 23.3178C359.398 21.0764 356.692 19.4882 353.719 18.7341C349.675 17.7637 345.448 17.937 341.495 19.2351C339.404 19.9317 337.47 21.0417 335.803 22.5013C334.086 24.0135 332.722 25.8957 331.81 28.0111C330.898 30.1265 330.461 32.422 330.53 34.7308C330.491 37.0099 330.945 39.2696 331.859 41.3509C332.773 43.4322 334.126 45.2836 335.821 46.7747C337.463 48.2406 339.397 49.3729 341.477 50.115C343.702 50.9132 346.038 51.3213 348.409 51.3213C350.07 51.3213 351.749 51.1729 353.409 50.8388C354.959 50.542 356.492 50.041 357.934 49.3543C360.758 48.0535 363.072 45.825 364.501 43.0261L371.854 46.8119Z" fill="#002E75"/>
</g>
<defs>
<clipPath id="clip0_998_56">
<rect width="372" height="93" fill="white"/>
</clipPath>
</defs>
</svg>
