<svg width="958" height="240" viewBox="0 0 958 240" fill="none" xmlns="http://www.w3.org/2000/svg">
<path d="M923.177 173.383L923.762 173.482C924.846 175.191 924.097 207.444 924.089 212.279L917.158 212.194L916.296 211.705C915.729 207.55 916.127 202.942 916.141 198.741L916.236 173.534L923.177 173.383Z" fill="#002E75"/>
<path d="M741.039 173.526L749.486 173.605C752.382 178.151 754.341 184.015 756.64 188.967L763.4 173.6L771.897 173.482L764.268 189.019C763.048 191.388 761.302 194.154 760.643 196.718C760.281 198.124 760.503 200.045 760.503 201.499L760.542 212.154L752.419 212.257C752.4 207.384 753.188 201.26 752.303 196.562C751.896 194.406 750.134 191.663 749.12 189.654L741.039 173.526Z" fill="#002E75"/>
<path d="M846.343 173.536L854.362 173.503L862.334 198.353C864.11 190.269 866.5 181.008 869.856 173.475L877.812 173.524L874.306 184.349L865.122 211.95C863.963 212.633 860.635 212.329 859.197 212.364L846.343 173.536Z" fill="#002E75"/>
<path d="M505.321 173.252C509.08 173.042 513.201 173.385 516.298 175.742C519.125 177.893 521.072 180.857 521.55 184.39C521.646 185.097 521.571 185.124 521.136 185.699C520.578 185.698 514.475 185.785 514.372 185.695C513.061 184.549 512.554 182.302 510.949 181.1C509.846 180.273 507.428 180.212 506.095 180.406C504.804 180.593 503.776 181.145 502.994 182.212C500.314 185.87 501 195.945 501.708 200.411C501.986 202.166 502.517 203.399 503.956 204.442C505.548 205.595 507.419 205.777 509.331 205.434C511.715 205.008 513.185 201.918 514.434 200.089C516.666 200.081 519.173 199.844 521.36 200.286C521.847 202.159 520.928 204.2 520.031 205.819C518.446 208.682 515.721 210.973 512.544 211.856C508.867 212.877 503.859 212.895 500.432 210.916C497.355 209.138 494.833 206.504 493.933 202.977C493.171 199.991 493.265 196.778 493.258 193.719C493.247 189.12 492.827 183.692 495.307 179.627C497.687 175.725 501.098 174.295 505.321 173.252Z" fill="#002E75"/>
<path d="M280.397 173.253C284.204 173.13 287.653 173.289 290.963 175.475C294.75 177.976 296.118 181.533 296.995 185.742L289.238 185.697L288.057 183.585C287.371 182.489 286.192 180.949 284.876 180.653L284.688 180.613C282.953 180.219 280.951 180.25 279.34 181.094C278.104 181.741 277.399 182.843 276.999 184.153C275.73 188.318 275.43 198.87 277.529 202.79L277.638 202.99C278.001 203.67 278.35 204.151 279.016 204.563C280.537 205.505 282.8 205.878 284.539 205.392C286.917 204.728 288.087 202.071 289.275 200.105L297.272 200.243C296.624 202.155 296.013 204.247 294.95 205.974C293.199 208.822 290.433 211.204 287.121 211.96C282.512 213.013 278.141 212.595 274.096 210.049C271.033 208.121 269.381 205.347 268.606 201.834C268.071 199.41 268.295 196.574 268.294 194.094C268.292 189.065 267.738 183.453 270.591 179.021C272.822 175.555 276.564 174.098 280.397 173.253Z" fill="#002E75"/>
<path d="M795.98 173.26C801.907 172.708 806.34 174.16 811.019 177.712L806.377 182.274C806.316 182.334 806.279 182.464 806.194 182.454C805.693 182.398 804.442 181.522 803.914 181.274C802.174 180.455 799.642 179.84 797.739 179.983C796.413 180.083 794.46 180.481 793.575 181.559C792.62 182.722 792.162 183.966 792.38 185.494C792.918 189.267 799.713 189.034 802.635 189.648C804.482 190.036 806.336 190.613 807.881 191.736C809.961 193.248 811.116 195.645 811.511 198.14C812.015 201.32 811.742 204.706 809.775 207.347C806.849 211.277 802.65 212.02 798.125 212.661C795.938 212.677 793.733 212.374 791.587 211.963C788.818 211.433 785.086 209.872 783.458 207.476L784.132 206.28C784.473 205.797 787.644 202.531 787.994 202.496C788.615 202.433 791.757 204.594 792.625 204.91C794.691 205.663 797.776 205.806 799.954 205.412C801.184 205.189 802.576 204.485 803.277 203.423C803.958 202.392 804.224 200.943 803.942 199.709C803.122 196.113 795.508 196.147 792.433 195.374C791.051 195.026 789.741 194.355 788.559 193.569C786.632 192.289 785.634 190.689 785.196 188.418C784.635 185.505 784.69 181.184 786.44 178.648C788.85 175.154 791.936 173.991 795.98 173.26Z" fill="#002E75"/>
<path d="M459.714 173.279C465.46 172.574 469.948 174.269 474.548 177.53L474.41 177.721C473.591 178.83 471.113 181.855 469.97 182.401C469.351 182.697 467.768 181.395 467.231 181.11C465.775 180.337 462.258 179.799 460.582 180.074C459.183 180.304 457.737 180.739 456.889 181.96C455.763 183.583 455.971 184.572 456.284 186.393C459.796 190.477 466.941 188.534 471.545 191.77C473.577 193.199 474.843 195.417 475.254 197.851C475.772 200.921 475.557 204.424 473.66 207.01C470.655 211.109 466.629 211.885 461.94 212.602C455.654 212.316 451.882 211.454 446.644 207.76C447.958 205.685 449.913 204.056 451.691 202.388C453.949 203.843 455.925 205.159 458.651 205.467C460.937 205.726 464.162 205.85 466.012 204.311C467.143 203.371 467.676 201.948 467.82 200.523C467.52 199.839 467.176 198.612 466.736 198.056C465.39 196.359 459.663 196.229 457.455 195.745C455.557 195.328 453.776 194.667 452.166 193.557C449.871 191.974 448.836 189.655 448.347 186.981C447.793 183.959 448.631 180.617 450.401 178.114C452.686 174.883 456.042 173.915 459.714 173.279Z" fill="#002E75"/>
<path d="M441.014 173.383L441.948 173.438L442.081 174.729L442.115 192.866C442.111 195.948 442.502 199.73 441.808 202.731C441.338 204.763 440.084 206.883 438.636 208.373C435.936 211.152 431.824 212.559 427.989 212.577C423.984 212.596 419.866 211.11 417.027 208.25C411.945 203.129 413.708 189.626 413.725 182.692L413.899 173.518L421.23 173.396C421.588 179.316 419.639 200.064 423.186 203.659C424.489 204.98 425.964 205.549 427.803 205.562C429.662 205.577 431.027 205.203 432.368 203.863C433.389 202.843 433.979 201.599 434.273 200.194C434.851 197.431 434.514 193.979 434.498 191.146L434.402 173.597L441.014 173.383Z" fill="#002E75"/>
<path d="M678.338 173.5L704.047 173.471L704.039 180.66L686.159 180.775L686.181 189.249L701.374 188.977L701.403 196.446L686.151 196.405L686.174 205.318C692.108 205.151 698.142 205.721 704.04 205.005L704.092 212.2L678.354 212.278L678.338 173.5Z" fill="#002E75"/>
<path d="M574.944 173.831C576.452 173.179 579.128 173.51 580.801 173.505C583.525 178.699 585.09 184.948 587.041 190.486L595.047 212.142L586.498 212.236C585.913 210.153 585.472 207.376 584.252 205.592L581.76 205.442L571.285 205.293L569.051 212.121L560.563 212.208L571.161 183.249C572.317 180.164 572.981 176.512 574.944 173.831ZM577.673 185.49L573.556 198.804L579.249 198.78L581.873 198.685C581.899 197.152 581.068 195.335 580.579 193.876L577.673 185.49Z" fill="#002E75"/>
<path d="M312.254 173.494L318.255 173.565L332.497 211.992C330.07 212.603 326.524 212.124 323.975 212.075C323.406 209.984 322.985 207.532 321.983 205.614L319.181 205.431L308.517 205.442C308.146 207.644 307.285 209.826 306.593 211.948C305.178 212.724 299.872 212.136 298.034 212.114L312.254 173.494ZM315.092 186.392L312.103 195.264C311.761 196.245 311.028 197.703 311.134 198.698C312.717 198.997 314.505 198.804 316.117 198.761L319.203 198.922C319.779 197.507 316.41 188.635 315.625 186.529L315.092 186.392Z" fill="#002E75"/>
<path d="M828.331 173.832C830.107 173.239 831.95 173.459 833.785 173.575C835.896 174.885 837.894 182.901 838.791 185.426L848.511 212.238L840.292 212.236L837.953 205.571L835.466 205.44L824.775 205.433L822.757 211.813C821.462 212.688 816.031 212.147 814.21 212.141L823.021 187.759C824.632 183.293 825.797 177.826 828.331 173.832ZM831.501 185.523L827.061 198.553C828.035 199.05 829.281 198.835 830.343 198.779L835.129 198.822L835.468 198.28L831.501 185.523Z" fill="#002E75"/>
<path d="M951 212.235L932.684 212.337L932.724 173.521L951 173.541V180.685V189.199V196.43V205.267V212.235ZM951 205.267V196.43L940.719 196.395L940.856 205.043L951 205.267ZM951 189.199V180.685L940.656 180.841L940.793 189.005L951 189.199Z" fill="#002E75"/>
<path d="M527.993 173.513L536.044 173.58L536.014 189.264L548.385 189.228L548.211 173.483L556.571 173.463L556.581 212.185L548.336 212.296L548.387 196.154L535.971 196.164L535.965 212.211L527.915 212.21L527.993 173.513Z" fill="#002E75"/>
<path d="M380.348 173.482C384.648 173.736 389.084 173.506 393.401 173.541C396.111 173.563 398.696 173.45 401.243 174.556C403.99 175.75 406.52 178.143 407.588 180.983C408.815 184.245 408.786 187.712 407.309 190.887C406.149 193.38 403.638 195.953 401.008 196.876C399.091 197.549 397.316 197.688 395.292 197.785L388.428 197.849L388.5 212.154L380.367 212.291L380.348 173.482ZM388.427 180.74L388.423 190.784C391.725 190.704 396.32 191.339 398.99 189.268C400.137 187.614 400.497 186.26 400.141 184.201C399.934 183.008 399.261 182 398.234 181.339C396.306 180.099 390.8 180.692 388.427 180.74Z" fill="#002E75"/>
<path d="M711.099 173.535C716.93 173.525 724.669 172.646 730.239 173.992C733.071 174.676 735.573 176.558 737.086 179.052C738.66 181.65 739.305 185.337 738.556 188.286C737.634 191.918 735.027 193.977 731.972 195.799L740.426 212.088L731.173 212.106L723.87 196.997L718.764 196.948L718.838 212.186L710.93 212.292L711.099 173.535ZM718.753 180.653L718.765 190.279C721.673 190.282 727.493 190.983 729.614 188.879L729.792 188.692C730.669 187.325 731.219 185.97 730.848 184.319C730.552 183.003 729.93 182.143 728.896 181.296C726.269 180.135 721.668 180.665 718.753 180.653Z" fill="#002E75"/>
<path d="M336.943 173.514L344.138 173.601C345.502 174.951 346.333 177.272 347.228 178.982L354.336 193.236L360.267 181.151C361.266 179.059 362.394 175.657 363.951 173.984C364.643 173.242 370.423 173.491 371.738 173.468L371.739 212.193L364.018 212.262L364.064 206.468L363.994 190.217L359.095 199.933C358.549 200.941 357.916 202.469 356.956 203.132C356.009 203.785 353.638 203.854 352.537 203.568C350.514 203.042 345.913 192.915 344.543 190.491L344.592 212.184C342.617 212.222 338.723 212.741 336.953 212.113L336.943 173.514Z" fill="#002E75"/>
<path d="M599.141 173.422L606.688 173.548C610.82 179.525 613.648 186.762 616.73 193.338C620.173 186.863 622.757 179.78 626.705 173.589L634.415 173.363L634.477 212.249L626.441 212.266L626.449 204.896L626.528 190.234L622.004 199.177C621.291 200.593 620.639 202.291 619.369 203.294C618.522 203.963 615.546 203.547 614.491 203.438C611.945 201.764 608.936 193.66 607.324 190.768C606.835 192.373 607.201 195.129 607.208 196.847L607.288 212.27L599.19 212.464L599.141 173.422Z" fill="#002E75"/>
<path d="M892.132 173.265C895.615 173.109 899.253 173.173 902.295 175.113C905.827 177.366 907.741 180.203 908.601 184.274C909.107 186.673 908.933 189.347 908.937 191.791C908.944 196.372 909.49 202.31 906.854 206.292C904.439 209.942 901.026 211.569 896.905 212.438C892.897 212.787 889.28 212.183 885.857 210C882.913 208.121 881.416 205.37 880.68 202.031C880.087 199.344 880.169 196.506 880.163 193.765C880.152 188.878 879.823 183.219 882.586 178.951C884.719 175.656 888.445 174.031 892.132 173.265ZM892.463 180.561C890.848 181.155 889.836 181.905 889.102 183.504C887.519 186.954 887.593 198.318 888.934 201.885C889.467 203.302 890.627 204.484 892.014 205.083C893.287 205.633 895.357 205.783 896.648 205.215L896.987 205.049C898.721 203.949 899.958 203.114 900.411 201.021C901.337 196.739 902.027 186.38 899.604 182.728C898.732 181.413 897.417 180.741 895.897 180.466C894.741 180.256 893.614 180.388 892.463 180.561Z" fill="#002E75"/>
<path d="M643.064 173.435C650.054 174.133 661.952 171.379 667.383 176.43C669.322 178.233 670.395 181.042 670.482 183.651C670.622 187.836 669.209 189.563 666.523 192.45C667.856 193.526 669.527 194.792 670.207 196.422C671.686 199.965 671.231 203.709 669.738 207.116L669.163 207.888C665.274 212.527 660.613 212.149 655.105 212.176C651.089 212.196 647.082 212.095 643.079 212.479L643.064 173.435ZM650.645 196.249C650.667 198.486 650.125 203.345 650.953 205.245C653.515 205.278 659.806 205.992 661.66 204.252C662.683 202.955 663.321 201.923 663.135 200.187C662.991 198.836 662.593 198.03 661.66 197.049C658.206 195.667 654.281 196.13 650.645 196.249ZM650.728 180.766L650.749 188.821C652.672 189.463 658.798 189.531 660.602 188.545C660.983 188.337 661.285 188.062 661.569 187.738C662.176 186.639 662.985 185.4 662.624 184.1C662.29 182.899 661.808 181.743 660.667 181.156C658.482 180.033 653.239 180.693 650.728 180.766Z" fill="#002E75"/>
<path d="M270.167 27.0309L294.422 26.9512L294.584 149.871L270.096 149.9L270.167 27.0309Z" fill="#002E75"/>
<path d="M505.66 27.0855L510.491 26.8398C530.597 26.2012 552.24 32.6857 567.048 46.5832L550.908 59.1343C550.793 59.2166 550.072 59.7739 550.006 59.7732C549.58 59.7686 543.816 55.0677 542.821 54.4854C534.338 49.5169 524.118 46.8164 514.305 46.7024C506.272 46.6091 494.599 47.7039 488.592 53.6585C486.447 55.7844 485.408 58.3749 485.409 61.4033C485.41 64.2036 487.033 67.6488 489.374 69.222C493.319 71.8736 499.067 72.5397 503.658 73.4375L526.404 77.3225C532.149 78.2378 538.005 79.0114 543.551 80.8359C549.917 82.9308 555.441 86.2712 560.184 90.9907C565.894 96.6717 567.514 105.689 567.508 113.435C567.5 123.663 564.055 132.127 556.841 139.321C545.638 150.496 528.848 151.961 513.939 151.94L503.334 151.235C491.678 149.781 477.812 145.799 468.237 138.8C463.757 135.525 460.223 131.611 456.829 127.257L475.399 114.437L480.958 119.935C491.003 128.429 507.992 132.978 520.978 131.868C528.181 131.252 536.051 129.575 540.918 123.744C543.664 120.454 545.187 116.617 544.772 112.268C544.297 107.289 541.206 103.584 536.732 101.495C531.767 99.1759 526.064 98.7545 520.688 98.1144C508.483 96.6614 495.811 96.0066 484.167 91.7735C480.232 90.3432 476.364 88.6565 473.133 85.9345C466.313 80.1879 463.25 73.323 462.541 64.5237C461.911 56.7233 464.801 48.1361 469.827 42.2152C478.771 31.6791 492.395 28.1604 505.66 27.0855Z" fill="#002E75"/>
<path d="M587.088 27.0339L687.079 26.9766L687.15 48.5355L601.914 48.4601L606.771 53.9309C607.368 54.5882 608.492 55.5224 608.905 56.2746C609.203 56.817 609.165 59.0019 609.212 59.6942C609.588 65.2923 609.368 71.0578 609.363 76.6726L676.6 76.6065L676.658 97.8699L628.042 97.8383L609.305 97.8857L609.318 128.326L690.712 128.316L690.619 149.853L587.085 149.964L587.088 27.0339Z" fill="#002E75"/>
<path d="M712.109 27.0159L812.081 26.9648L812.089 48.6985C803.494 47.8139 794.123 48.5143 785.451 48.5118L726.953 48.4677C729.038 50.9257 732.189 53.5417 733.761 56.2743C735.361 59.0556 734.451 72.7033 734.437 76.6548L801.38 76.6078L801.624 97.8759L753.101 97.8387L734.428 97.9037L734.434 128.324L815.78 128.317C816.616 129.927 815.937 146.473 815.957 149.879L712.07 149.909L712.109 27.0159Z" fill="#002E75"/>
<path d="M316.207 27.0262L345.981 27.1508C348.731 28.8732 351.32 32.7284 353.375 35.2796L362.903 46.707L415.802 109.393C415.35 106.165 415.542 102.757 415.543 99.4964L415.552 83.425L415.475 27.0654L438.663 26.9941L438.625 149.701C437.952 150.171 436.029 149.931 435.186 149.929L424.652 149.877L419.742 149.798C417.026 147.787 414.613 144.089 412.437 141.466L398.834 125.18L339.345 53.9809L339.074 54.08L338.922 149.787L316.11 149.883L316.207 27.0262Z" fill="#002E75"/>
<path d="M239 130.13C222.174 156.182 200.953 179.083 176.292 197.801C137.703 226.124 98.6059 246.895 58.4933 237.862C46.2564 235.055 26.5048 221.939 28.6373 191.574C31.0545 169.454 38.983 148.303 51.6894 130.079C51.6894 130.079 25.3877 169.477 42.9053 193.463C61.2352 218.469 112.975 191.319 121.607 185.399C121.607 185.399 157.556 162.026 176.749 130.283L239 130.079V130.13ZM0 110.074C16.9082 83.9959 38.0816 61.0308 62.8092 42.1994C101.297 13.8759 140.445 -6.89478 180.507 2.13815C192.744 4.84293 212.495 17.9585 210.21 48.3235C207.925 70.523 200.055 91.753 187.361 110.074C187.361 110.074 213.663 70.7782 196.095 46.8435C177.816 21.8881 126.025 49.0379 117.393 54.9068C117.393 54.9068 81.4946 78.2801 62.2507 110.023L0 110.074Z" fill="#002E75"/>
<path d="M957.624 120.805C955.195 126.206 951.838 131.12 947.71 135.316C943.576 139.434 938.783 142.978 933.615 145.66C928.211 148.534 922.432 150.593 916.465 151.886C910.169 153.323 903.779 153.993 897.295 153.993C887.731 154.121 878.225 152.466 869.245 149.108C861.258 146.043 853.975 141.446 847.726 135.507C841.762 129.747 837.041 122.782 833.865 115.058C830.576 106.916 828.885 98.2482 829.026 89.4842C828.766 80.5259 830.47 71.6213 834.014 63.4193C837.558 55.2173 842.852 47.9245 849.511 42.0723C855.942 36.4734 863.356 32.1671 871.359 29.3813C879.77 26.4599 888.603 24.9753 897.483 25.0232C910.169 24.688 922.714 27.9924 933.662 34.5056C943.998 40.8272 952.409 49.9264 958 60.7976L938.501 69.7532C936.293 66.3051 933.803 63.0964 931.031 60.175C925.546 54.3907 918.579 50.2921 910.921 48.346C900.508 45.8418 889.622 46.289 879.441 49.6391C874.057 51.4367 869.075 54.3012 864.782 58.0678C860.361 61.9703 856.848 66.8275 854.5 72.2867C852.151 77.7458 851.025 83.6696 851.203 89.6279C851.103 95.5094 852.272 101.341 854.627 106.712C856.981 112.083 860.464 116.861 864.829 120.709C869.057 124.492 874.038 127.414 879.394 129.329C885.126 131.389 891.14 132.442 897.248 132.442C901.524 132.442 905.847 132.059 910.122 131.197C914.116 130.431 918.063 129.138 921.775 127.366C929.05 124.009 935.007 118.258 938.689 111.035L957.624 120.805Z" fill="#002E75"/>
</svg>
