<svg width="120" height="92" viewBox="0 0 120 92" fill="none" xmlns="http://www.w3.org/2000/svg">
<rect width="120" height="92" fill="#C5C5C5"/>
<mask id="mask0_828_10" style="mask-type:alpha" maskUnits="userSpaceOnUse" x="48" y="34" width="24" height="24">
<rect x="48" y="34" width="24" height="24" fill="#D9D9D9"/>
</mask>
<g mask="url(#mask0_828_10)">
<path d="M53.1153 54.4998C52.6102 54.4998 52.1826 54.3248 51.8326 53.9748C51.4826 53.6248 51.3076 53.1972 51.3076 52.6921V39.3076C51.3076 38.8024 51.4826 38.3749 51.8326 38.0249C52.1826 37.6749 52.6102 37.4999 53.1153 37.4999H61.8076V41.9998H63.8076V43.9998H68.3075V52.6921C68.3075 53.1972 68.1325 53.6248 67.7825 53.9748C67.4325 54.3248 67.005 54.4998 66.4999 54.4998H53.1153ZM54.5576 50.7498H65.1344L61.846 46.3652L59.0383 50.0191L57.0384 47.4614L54.5576 50.7498ZM65.1922 42.6152V40.6152H63.1922V39.1152H65.1922V37.1152H66.6922V39.1152H68.6922V40.6152H66.6922V42.6152H65.1922Z" fill="#656565"/>
</g>
</svg>
