<svg width="14" height="20" viewBox="0 0 14 20" fill="none" xmlns="http://www.w3.org/2000/svg">
<path d="M6.7692 3.69228C6.26408 3.69228 5.83012 3.51087 5.4673 3.14805C5.10448 2.78523 4.92308 2.35126 4.92308 1.84613C4.92308 1.34101 5.10448 0.907043 5.4673 0.544226C5.83012 0.181409 6.26408 0 6.7692 0C7.27433 0 7.70831 0.181409 8.07113 0.544226C8.43394 0.907043 8.61535 1.34101 8.61535 1.84613C8.61535 2.35126 8.43394 2.78523 8.07113 3.14805C7.70831 3.51087 7.27433 3.69228 6.7692 3.69228ZM11.8846 19.3269V14.5577C11.8846 14.4807 11.8622 14.4198 11.8173 14.375C11.7724 14.3301 11.7115 14.3076 11.6346 14.3076H6.78845C6.30255 14.3076 5.8862 14.1342 5.5394 13.7875C5.19262 13.4407 5.01923 13.0243 5.01923 12.5384V6.55765C5.01923 6.07175 5.18942 5.65862 5.5298 5.31825C5.87018 4.97787 6.28332 4.80768 6.7692 4.80768C7.08587 4.80768 7.37561 4.88395 7.63843 5.0365C7.90124 5.18907 8.19611 5.45382 8.52302 5.83075C9.44611 6.92433 10.2641 7.67369 10.9769 8.07883C11.6897 8.48394 12.5115 8.72048 13.4422 8.78843V10.2884C12.514 10.2371 11.6304 10.0086 10.7913 9.60283C9.9522 9.19704 9.16918 8.64735 8.44225 7.95375V12.3846H11.6153C12.1012 12.3846 12.5176 12.558 12.8644 12.9048C13.2112 13.2516 13.3845 13.6679 13.3845 14.1538V19.3269H11.8846ZM4.7692 19.3269C3.45638 19.3269 2.33331 18.8602 1.39997 17.9269C0.466658 16.9935 0 15.8705 0 14.5577C0 13.3769 0.379167 12.3474 1.1375 11.4692C1.89583 10.591 2.85641 10.0545 4.01923 9.8596V11.3903C3.29486 11.5724 2.69388 11.9512 2.2163 12.5269C1.73873 13.1025 1.49995 13.7794 1.49995 14.5577C1.49995 15.4679 1.81726 16.2404 2.45188 16.875C3.08649 17.5096 3.85893 17.8269 4.7692 17.8269C5.54742 17.8269 6.22435 17.5881 6.8 17.1105C7.37565 16.633 7.75449 16.032 7.93653 15.3076H9.46728C9.28523 16.4576 8.75189 17.415 7.86728 18.1798C6.98266 18.9445 5.94997 19.3269 4.7692 19.3269Z" fill="#2A3B6B"/>
</svg>
