<svg width="17" height="20" viewBox="0 0 17 20" fill="none" xmlns="http://www.w3.org/2000/svg">
<path d="M1.8077 19.1153C1.30257 19.1153 0.875 18.9403 0.525 18.5903C0.175 18.2403 0 17.8128 0 17.3076V3.92308C0 3.41794 0.175 2.99037 0.525 2.64037C0.875 2.29037 1.30257 2.11537 1.8077 2.11537H3.19233V0H4.73075V2.11537H12.3077V0H13.8076V2.11537H15.1923C15.6974 2.11537 16.125 2.29037 16.475 2.64037C16.825 2.99037 17 3.41794 17 3.92308V17.3076C17 17.8128 16.825 18.2403 16.475 18.5903C16.125 18.9403 15.6974 19.1153 15.1923 19.1153H1.8077ZM1.8077 17.6154H15.1923C15.2692 17.6154 15.3397 17.5833 15.4038 17.5192C15.4679 17.4551 15.5 17.3846 15.5 17.3076V7.92308H1.49997V17.3076C1.49997 17.3846 1.53202 17.4551 1.59612 17.5192C1.66024 17.5833 1.73077 17.6154 1.8077 17.6154ZM1.49997 6.4231H15.5V3.92308C15.5 3.84614 15.4679 3.77562 15.4038 3.7115C15.3397 3.6474 15.2692 3.61535 15.1923 3.61535H1.8077C1.73077 3.61535 1.66024 3.6474 1.59612 3.7115C1.53202 3.77562 1.49997 3.84614 1.49997 3.92308V6.4231Z" fill="#2A3B6B"/>
</svg>
