<svg width="17" height="18" viewBox="0 0 17 18" fill="none" xmlns="http://www.w3.org/2000/svg">
<path d="M4.0011 2.74998C3.6542 2.74998 3.35896 2.87139 3.11538 3.11423C2.87179 3.35706 2.75 3.65193 2.75 3.99883C2.75 4.34574 2.87142 4.64099 3.11425 4.88457C3.35708 5.12816 3.65195 5.24995 3.99885 5.24995C4.34575 5.24995 4.64099 5.12853 4.88458 4.8857C5.12816 4.64287 5.24995 4.348 5.24995 4.0011C5.24995 3.6542 5.12853 3.35895 4.8857 3.11535C4.64287 2.87177 4.348 2.74998 4.0011 2.74998ZM4.0011 12.1346C3.6542 12.1346 3.35896 12.256 3.11538 12.4988C2.87179 12.7416 2.75 13.0365 2.75 13.3834C2.75 13.7303 2.87142 14.0255 3.11425 14.2691C3.35708 14.5127 3.65195 14.6345 3.99885 14.6345C4.34575 14.6345 4.64099 14.5131 4.88458 14.2703C5.12816 14.0274 5.24995 13.7326 5.24995 13.3857C5.24995 13.0388 5.12853 12.7435 4.8857 12.4999C4.64287 12.2563 4.348 12.1346 4.0011 12.1346ZM0.884625 0H16.1153C16.366 0 16.5761 0.0845421 16.7456 0.253625C16.9152 0.422725 17 0.632251 17 0.882201V7.05762C17 7.32814 16.9152 7.55282 16.7456 7.73165C16.5761 7.9105 16.366 7.99993 16.1153 7.99993H0.884625C0.633975 7.99993 0.423875 7.9105 0.254325 7.73165C0.0847747 7.55282 0 7.32814 0 7.05762V0.882201C0 0.632251 0.0847747 0.422725 0.254325 0.253625C0.423875 0.0845421 0.633975 0 0.884625 0ZM1.49997 1.49998V6.49998H15.5V1.49998H1.49997ZM0.884625 9.38457H16.0961C16.3602 9.38457 16.5769 9.47303 16.7461 9.64995C16.9153 9.82688 17 10.0461 17 10.3077V16.423C17 16.7063 16.9153 16.9374 16.7461 17.1162C16.5769 17.2951 16.3602 17.3845 16.0961 17.3845H0.90385C0.63975 17.3845 0.423083 17.2951 0.25385 17.1162C0.0846165 16.9374 0 16.7063 0 16.423V10.3077C0 10.0461 0.0814164 9.82688 0.24425 9.64995C0.407066 9.47303 0.620525 9.38457 0.884625 9.38457ZM1.49997 10.8845V15.8845H15.5V10.8845H1.49997Z" fill="#2A3B6B"/>
</svg>
