<svg width="17" height="17" viewBox="0 0 17 17" fill="none" xmlns="http://www.w3.org/2000/svg">
<path d="M1.8077 17C1.30257 17 0.875 16.825 0.525 16.475C0.175 16.125 0 15.6974 0 15.1923V1.8077C0 1.30257 0.175 0.875 0.525 0.525C0.875 0.175 1.30257 0 1.8077 0H15.1923C15.6974 0 16.125 0.175 16.475 0.525C16.825 0.875 17 1.30257 17 1.8077V15.1923C17 15.6974 16.825 16.125 16.475 16.475C16.125 16.825 15.6974 17 15.1923 17H1.8077ZM1.8077 15.5H15.1923C15.2692 15.5 15.3397 15.4679 15.4038 15.4038C15.4679 15.3397 15.5 15.2692 15.5 15.1923V1.8077C15.5 1.73077 15.4679 1.66024 15.4038 1.59613C15.3397 1.53203 15.2692 1.49998 15.1923 1.49998H1.8077C1.73077 1.49998 1.66024 1.53203 1.59612 1.59613C1.53202 1.66024 1.49997 1.73077 1.49997 1.8077V15.1923C1.49997 15.2692 1.53202 15.3397 1.59612 15.4038C1.66024 15.4679 1.73077 15.5 1.8077 15.5Z" fill="#2A3B6B"/>
</svg>
