<svg width="20" height="20" viewBox="0 0 20 20" fill="none" xmlns="http://www.w3.org/2000/svg">
<path d="M6.1923 6.69225V5.1923H14.8077V6.69225H6.1923ZM6.1923 9.57688V8.0769H14.8077V9.57688H6.1923ZM8.92305 19.5H2.99997C2.30127 19.5 1.70993 19.258 1.22595 18.774C0.741983 18.29 0.5 17.6987 0.5 17V14.1154H3.5V0.5H17.5V8.95765C17.2435 8.94355 16.9894 8.95926 16.7375 9.00478C16.4855 9.05029 16.2397 9.12561 16 9.23073V1.99998H4.99998V14.1154H10.673L9.17308 15.6153H1.99997V17C1.99997 17.2833 2.09581 17.5208 2.28747 17.7125C2.47914 17.9041 2.71664 18 2.99997 18H8.92305V19.5ZM11.1154 19.5V16.8577L16.5442 11.4538C16.6686 11.3295 16.8032 11.242 16.9481 11.1913C17.0929 11.1407 17.2378 11.1154 17.3827 11.1154C17.5378 11.1154 17.6894 11.1449 17.8375 11.2038C17.9855 11.2628 18.1185 11.3513 18.2365 11.4692L19.1615 12.4038C19.2692 12.5282 19.3525 12.6628 19.4115 12.8077C19.4705 12.9525 19.5 13.0974 19.5 13.2423C19.5 13.3871 19.473 13.5346 19.4192 13.6846C19.3653 13.8346 19.2794 13.9718 19.1615 14.0961L13.7577 19.5H11.1154ZM12.3077 18.3077H13.2577L16.5038 15.0461L16.0442 14.5711L15.5788 14.1019L12.3077 17.3577V18.3077ZM16.0442 14.5711L15.5788 14.1019L16.5038 15.0461L16.0442 14.5711Z" fill="#fffdfa"/>
</svg>
