<svg width="15" height="15" viewBox="0 0 15 15" fill="none" xmlns="http://www.w3.org/2000/svg">
<path d="M6.83471 10.303L3 6.5L4 5.5L6.83471 8.16453L14.0001 1L15.0001 2L6.83471 10.303Z" fill="#FFFDFA"/>
<path d="M1.80769 15C1.30255 15 0.874989 14.825 0.525003 14.475C0.175001 14.125 0 13.6974 0 13.1923V1.80771C0 1.30257 0.175001 0.875003 0.525003 0.525002C0.874989 0.175001 1.30255 0 1.80769 0H10.1923C10.6974 0 11.125 0.175001 11.475 0.525002C11.825 0.875003 12 1.30257 12 1.80771V13.1923C12 13.6974 11.825 14.125 11.475 14.475C11.125 14.825 10.6974 15 10.1923 15H1.80769ZM1.80769 13.5H10.1923C10.2692 13.5 10.3397 13.468 10.4039 13.4039C10.468 13.3398 10.5 13.2692 10.5 13.1923V1.80771C10.5 1.73077 10.468 1.66025 10.4039 1.59613C10.3397 1.53203 10.2692 1.49998 10.1923 1.49998H1.80769C1.73075 1.49998 1.66024 1.53203 1.59614 1.59613C1.53202 1.66025 1.49996 1.73077 1.49996 1.80771V13.1923C1.49996 13.2692 1.53202 13.3398 1.59614 13.4039C1.66024 13.468 1.73075 13.5 1.80769 13.5Z" fill="#FFFDFA"/>
</svg>
