<svg width="15" height="18" viewBox="0 0 15 18" fill="none" xmlns="http://www.w3.org/2000/svg">
<path d="M5.13647 14.5946C4.64763 14.5946 4.23386 14.4244 3.89516 14.0838C3.55645 13.7433 3.38709 13.3273 3.38709 12.8358V1.75885C3.38709 1.26737 3.55645 0.851356 3.89516 0.510814C4.23386 0.170271 4.64763 0 5.13647 0H13.2506C13.7395 0 14.1532 0.170271 14.4919 0.510814C14.8306 0.851356 15 1.26737 15 1.75885V12.8358C15 13.3273 14.8306 13.7433 14.4919 14.0838C14.1532 14.4244 13.7395 14.5946 13.2506 14.5946H5.13647ZM5.13647 13.1352H13.2506C13.3251 13.1352 13.3933 13.104 13.4554 13.0416C13.5174 12.9792 13.5484 12.9106 13.5484 12.8358V1.75885C13.5484 1.684 13.5174 1.61538 13.4554 1.553C13.3933 1.49063 13.3251 1.45944 13.2506 1.45944H5.13647C5.06202 1.45944 4.99377 1.49063 4.93174 1.553C4.86969 1.61538 4.83867 1.684 4.83867 1.75885V12.8358C4.83867 12.9106 4.86969 12.9792 4.93174 13.0416C4.99377 13.104 5.06202 13.1352 5.13647 13.1352ZM1.74937 18C1.26055 18 0.84678 17.8297 0.508068 17.4892C0.169356 17.1486 0 16.7326 0 16.2412V3.70481H1.4516V16.2412C1.4516 16.316 1.48261 16.3846 1.54465 16.447C1.6067 16.5094 1.67494 16.5406 1.74937 16.5406H11.3151V18H1.74937Z" fill="#FFFDFA"/>
</svg>
