<svg width="24" height="24" viewBox="0 0 24 24" fill="none" xmlns="http://www.w3.org/2000/svg">
<mask id="mask0_921_49" style="mask-type:alpha" maskUnits="userSpaceOnUse" x="0" y="0" width="24" height="24">
<rect width="24" height="24" fill="#D9D9D9"/>
</mask>
<g mask="url(#mask0_921_49)">
<path d="M12 21.75C10.3102 21.75 8.92948 21.4948 7.85768 20.9846C6.78589 20.4743 6.25 19.8128 6.25 19C6.25 18.5128 6.4548 18.0798 6.8644 17.701C7.27402 17.3221 7.83972 17.0109 8.5615 16.7673L8.99225 18.1961C8.67687 18.3115 8.41212 18.4413 8.19802 18.5856C7.98392 18.7298 7.84483 18.8679 7.78073 19C7.94611 19.3564 8.43809 19.6538 9.25668 19.8923C10.0753 20.1308 10.9897 20.25 12 20.25C13.0038 20.25 13.9192 20.1308 14.7462 19.8923C15.5731 19.6538 16.0692 19.3564 16.2346 19C16.1705 18.8679 16.0314 18.7314 15.8173 18.5904C15.6032 18.4493 15.3385 18.3179 15.0231 18.1961L15.4635 16.7673C16.1852 17.0109 16.7468 17.3221 17.148 17.701C17.5493 18.0798 17.75 18.5128 17.75 19C17.75 19.8128 17.2141 20.4743 16.1423 20.9846C15.0705 21.4948 13.6897 21.75 12 21.75ZM12 18.4423C11.8359 18.4423 11.6852 18.3881 11.548 18.2798C11.4109 18.1714 11.309 18.032 11.2423 17.8615C10.8333 16.7422 10.3468 15.8035 9.78268 15.0452C9.21858 14.2868 8.67434 13.5602 8.14997 12.8654C7.64229 12.1705 7.20704 11.4506 6.84422 10.7057C6.48141 9.96086 6.3 9.04228 6.3 7.94998C6.3 6.35383 6.85096 5.00479 7.95287 3.90288C9.05479 2.80096 10.4038 2.25 12 2.25C13.5961 2.25 14.9452 2.80096 16.0471 3.90288C17.149 5.00479 17.7 6.35383 17.7 7.94998C17.7 9.04228 17.5227 9.96086 17.1682 10.7057C16.8137 11.4506 16.3743 12.1705 15.85 12.8654C15.3423 13.5602 14.8022 14.2868 14.2298 15.0452C13.6573 15.8035 13.1666 16.7422 12.7576 17.8615C12.691 18.032 12.5891 18.1714 12.4519 18.2798C12.3147 18.3881 12.1641 18.4423 12 18.4423ZM12 9.77688C12.5064 9.77688 12.9375 9.59899 13.2932 9.24323C13.649 8.88746 13.8269 8.45638 13.8269 7.94998C13.8269 7.44358 13.649 7.01249 13.2932 6.65673C12.9375 6.30096 12.5064 6.12308 12 6.12308C11.4936 6.12308 11.0625 6.30096 10.7067 6.65673C10.351 7.01249 10.1731 7.44358 10.1731 7.94998C10.1731 8.45638 10.351 8.88746 10.7067 9.24323C11.0625 9.59899 11.4936 9.77688 12 9.77688Z" fill="#FFFDFA"/>
</g>
</svg>
