<svg width="25" height="25" viewBox="0 0 25 25" fill="none" xmlns="http://www.w3.org/2000/svg">
<mask id="mask0_941_27" style="mask-type:alpha" maskUnits="userSpaceOnUse" x="0" y="0" width="25" height="25">
<rect x="0.478516" y="0.8125" width="24" height="24" fill="#D9D9D9"/>
</mask>
<g mask="url(#mask0_941_27)">
<path d="M4.47852 20.8125C3.92852 20.8125 3.45768 20.6167 3.06602 20.225C2.67435 19.8333 2.47852 19.3625 2.47852 18.8125V6.8125C2.47852 6.2625 2.67435 5.79167 3.06602 5.4C3.45768 5.00833 3.92852 4.8125 4.47852 4.8125H20.4785C21.0285 4.8125 21.4993 5.00833 21.891 5.4C22.2827 5.79167 22.4785 6.2625 22.4785 6.8125V18.8125C22.4785 19.3625 22.2827 19.8333 21.891 20.225C21.4993 20.6167 21.0285 20.8125 20.4785 20.8125H4.47852ZM12.4785 13.8125L4.47852 8.8125V18.8125H20.4785V8.8125L12.4785 13.8125ZM12.4785 11.8125L20.4785 6.8125H4.47852L12.4785 11.8125ZM4.47852 8.8125V6.8125V18.8125V8.8125Z" fill="#202020"/>
</g>
</svg>
