<svg width="19" height="15" viewBox="0 0 19 15" fill="none" xmlns="http://www.w3.org/2000/svg">
<path d="M1.8077 15C1.30257 15 0.875 14.825 0.525 14.475C0.175 14.125 0 13.6974 0 13.1923V1.8077C0 1.30257 0.175 0.875 0.525 0.525C0.875 0.175 1.30257 0 1.8077 0H17.1923C17.6974 0 18.125 0.175 18.475 0.525C18.825 0.875 19 1.30257 19 1.8077V13.1923C19 13.6974 18.825 14.125 18.475 14.475C18.125 14.825 17.6974 15 17.1923 15H1.8077ZM9.49998 8.05763L1.49998 2.94225V13.1923C1.49998 13.282 1.52883 13.3557 1.58653 13.4134C1.64423 13.4711 1.71795 13.5 1.8077 13.5H17.1923C17.282 13.5 17.3557 13.4711 17.4134 13.4134C17.4711 13.3557 17.5 13.282 17.5 13.1923V2.94225L9.49998 8.05763ZM9.49998 6.49998L17.3461 1.49998H1.65383L9.49998 6.49998ZM1.49998 2.94225V1.49998V13.1923C1.49998 13.282 1.52883 13.3557 1.58653 13.4134C1.64423 13.4711 1.71795 13.5 1.8077 13.5H1.49998V2.94225Z" fill="#202020"/>
</svg>
