<svg width="18" height="17" viewBox="0 0 18 17" fill="none" xmlns="http://www.w3.org/2000/svg">
<path d="M11.6538 17C9.70639 17 8.00608 16.4528 6.55288 15.3586C5.09968 14.2644 4.08205 12.8628 3.5 11.1538H0V9.65383H3.17503C3.11221 9.26024 3.08497 8.85415 3.0933 8.43555C3.10163 8.01695 3.12888 7.65381 3.17503 7.34613H0V5.84615H3.51925C4.09488 4.13718 5.1077 2.73558 6.5577 1.64135C8.00768 0.547118 9.70639 0 11.6538 0C12.7269 0 13.7423 0.183333 14.7 0.55C15.6577 0.916667 16.5173 1.42308 17.2788 2.06923L16.2096 3.11343C15.5865 2.60574 14.8891 2.20991 14.1173 1.92593C13.3455 1.64196 12.5243 1.49998 11.6538 1.49998C10.1154 1.49998 8.77657 1.91088 7.63748 2.73268C6.49838 3.55448 5.66472 4.5923 5.1365 5.84615H11.5961V7.34613H4.69998C4.62691 7.77048 4.5955 8.19355 4.60575 8.61535C4.616 9.03715 4.64741 9.38331 4.69998 9.65383H11.5961V11.1538H5.1269C5.66152 12.4077 6.49838 13.4455 7.63748 14.2673C8.77657 15.0891 10.1154 15.5 11.6538 15.5C12.5243 15.5 13.3455 15.358 14.1173 15.074C14.8891 14.79 15.5865 14.3942 16.2096 13.8865L17.2788 14.9307C16.5173 15.5769 15.6577 16.0833 14.7 16.45C13.7423 16.8166 12.7269 17 11.6538 17Z" fill="#2A3B6B"/>
</svg>
