<svg width="22" height="20" viewBox="0 0 22 20" fill="none" xmlns="http://www.w3.org/2000/svg">
<path d="M18.8 19.8L14.6 15.65C14.0167 15.8333 13.4292 15.9708 12.8375 16.0625C12.2458 16.1542 11.6333 16.2 11 16.2C8.48333 16.2 6.24167 15.5042 4.275 14.1125C2.30833 12.7208 0.883333 10.9167 0 8.7C0.35 7.81667 0.791667 6.99583 1.325 6.2375C1.85833 5.47917 2.46667 4.8 3.15 4.2L0.4 1.4L1.8 0L20.2 18.4L18.8 19.8ZM11 13.2C11.1833 13.2 11.3542 13.1917 11.5125 13.175C11.6708 13.1583 11.8417 13.125 12.025 13.075L6.625 7.675C6.575 7.85833 6.54167 8.02917 6.525 8.1875C6.50833 8.34583 6.5 8.51667 6.5 8.7C6.5 9.95 6.9375 11.0125 7.8125 11.8875C8.6875 12.7625 9.75 13.2 11 13.2ZM18.3 13.65L15.125 10.5C15.2417 10.2167 15.3333 9.92917 15.4 9.6375C15.4667 9.34583 15.5 9.03333 15.5 8.7C15.5 7.45 15.0625 6.3875 14.1875 5.5125C13.3125 4.6375 12.25 4.2 11 4.2C10.6667 4.2 10.3542 4.23333 10.0625 4.3C9.77083 4.36667 9.48333 4.46667 9.2 4.6L6.65 2.05C7.33333 1.76667 8.03333 1.55417 8.75 1.4125C9.46667 1.27083 10.2167 1.2 11 1.2C13.5167 1.2 15.7583 1.89583 17.725 3.2875C19.6917 4.67917 21.1167 6.48333 22 8.7C21.6167 9.68333 21.1125 10.5958 20.4875 11.4375C19.8625 12.2792 19.1333 13.0167 18.3 13.65ZM13.675 9.05L10.675 6.05C11.1417 5.96667 11.5708 6.00417 11.9625 6.1625C12.3542 6.32083 12.6917 6.55 12.975 6.85C13.2583 7.15 13.4625 7.49583 13.5875 7.8875C13.7125 8.27917 13.7417 8.66667 13.675 9.05Z" fill="#202020"/>
</svg>
