<svg width="21" height="19" viewBox="0 0 21 19" fill="none" xmlns="http://www.w3.org/2000/svg">
<path d="M14.2346 9.7884L13.1115 8.66535C13.2615 7.83713 13.0253 7.09258 12.4029 6.4317C11.7804 5.7708 11.0166 5.51535 10.1115 5.66535L8.98845 4.5423C9.21408 4.44102 9.44549 4.36506 9.68268 4.31443C9.91984 4.26378 10.1795 4.23845 10.4615 4.23845C11.5961 4.23845 12.5592 4.63428 13.3509 5.42595C14.1426 6.21762 14.5384 7.18075 14.5384 8.31535C14.5384 8.5974 14.5131 8.86022 14.4624 9.1038C14.4118 9.34738 14.3358 9.57558 14.2346 9.7884ZM17.4153 12.9L16.3115 11.8654C16.9448 11.382 17.5073 10.8529 17.999 10.2779C18.4907 9.70285 18.9115 9.04868 19.2615 8.31535C18.4282 6.63202 17.2323 5.29452 15.674 4.30285C14.1157 3.31118 12.3782 2.81535 10.4615 2.81535C9.97817 2.81535 9.50317 2.84868 9.0365 2.91535C8.56983 2.98202 8.1115 3.08202 7.6615 3.21535L6.49615 2.05C7.1282 1.79872 7.77371 1.61346 8.43268 1.49423C9.09164 1.37499 9.76792 1.31537 10.4615 1.31537C12.8051 1.31537 14.9185 1.96153 16.8019 3.25383C18.6852 4.54614 20.0589 6.23332 20.923 8.31535C20.5525 9.20893 20.074 10.0429 19.4874 10.8173C18.9009 11.5916 18.2102 12.2858 17.4153 12.9ZM18.223 18.6845L14.1769 14.6692C13.6641 14.8589 13.0958 15.014 12.4721 15.1346C11.8484 15.2551 11.1782 15.3153 10.4615 15.3153C8.11152 15.3153 5.99807 14.6692 4.12115 13.3769C2.24423 12.0846 0.870517 10.3974 0 8.31535C0.369233 7.43202 0.846158 6.60798 1.43078 5.84323C2.01539 5.07849 2.65898 4.41536 3.36155 3.85383L0.5923 1.05383L1.64615 0L19.2769 17.6307L18.223 18.6845ZM4.41538 4.90762C3.88718 5.32814 3.37339 5.8336 2.87403 6.424C2.37466 7.01438 1.97048 7.64483 1.6615 8.31535C2.49483 9.99868 3.69067 11.3362 5.249 12.3279C6.80733 13.3195 8.54483 13.8154 10.4615 13.8154C10.9166 13.8154 11.3699 13.7769 11.8212 13.7C12.2724 13.623 12.6551 13.5436 12.9692 13.4615L11.7038 12.1653C11.5333 12.2345 11.3359 12.2897 11.1115 12.3307C10.8872 12.3717 10.6705 12.3923 10.4615 12.3923C9.3269 12.3923 8.36377 11.9964 7.5721 11.2048C6.78043 10.4131 6.3846 9.44995 6.3846 8.31535C6.3846 8.11278 6.40512 7.90093 6.44615 7.67978C6.48718 7.45861 6.54231 7.25636 6.61153 7.07303L4.41538 4.90762Z" fill="#2A3B6B"/>
</svg>
