<svg width="21" height="14" viewBox="0 0 21 14" fill="none" xmlns="http://www.w3.org/2000/svg">
<path d="M10.4638 11.0769C11.5969 11.0769 12.5592 10.6803 13.3509 9.88713C14.1426 9.09394 14.5384 8.1308 14.5384 6.9977C14.5384 5.86462 14.1418 4.90224 13.3487 4.11058C12.5555 3.31891 11.5923 2.92308 10.4592 2.92308C9.32614 2.92308 8.36377 3.31966 7.5721 4.11282C6.78043 4.90601 6.3846 5.86915 6.3846 7.00225C6.3846 8.13533 6.78118 9.09771 7.57435 9.88938C8.36753 10.681 9.33068 11.0769 10.4638 11.0769ZM10.4615 9.69998C9.7115 9.69998 9.074 9.43748 8.549 8.91248C8.024 8.38748 7.7615 7.74998 7.7615 6.99998C7.7615 6.24998 8.024 5.61248 8.549 5.08748C9.074 4.56248 9.7115 4.29998 10.4615 4.29998C11.2115 4.29998 11.849 4.56248 12.374 5.08748C12.899 5.61248 13.1615 6.24998 13.1615 6.99998C13.1615 7.74998 12.899 8.38748 12.374 8.91248C11.849 9.43748 11.2115 9.69998 10.4615 9.69998ZM10.4629 14C8.16326 14 6.06793 13.3657 4.1769 12.0971C2.28588 10.8285 0.893583 9.12946 0 6.99998C0.893583 4.87049 2.28543 3.17146 4.17555 1.90288C6.06565 0.634293 8.16051 0 10.4601 0C12.7597 0 14.8551 0.634293 16.7461 1.90288C18.6371 3.17146 20.0294 4.87049 20.923 6.99998C20.0294 9.12946 18.6376 10.8285 16.7475 12.0971C14.8574 13.3657 12.7625 14 10.4629 14ZM10.4615 12.5C12.3448 12.5 14.074 12.0041 15.649 11.0125C17.224 10.0208 18.4282 8.68331 19.2615 6.99998C18.4282 5.31664 17.224 3.97914 15.649 2.98748C14.074 1.99581 12.3448 1.49998 10.4615 1.49998C8.57817 1.49998 6.849 1.99581 5.274 2.98748C3.699 3.97914 2.49483 5.31664 1.6615 6.99998C2.49483 8.68331 3.699 10.0208 5.274 11.0125C6.849 12.0041 8.57817 12.5 10.4615 12.5Z" fill="#2A3B6B"/>
</svg>
