<svg width="17" height="19" viewBox="0 0 17 19" fill="none" xmlns="http://www.w3.org/2000/svg">
<path d="M7.08075 14.223L13.8038 7.49998L12.75 6.44615L7.08075 12.1154L4.23075 9.26538L3.17693 10.3192L7.08075 14.223ZM1.8077 19C1.30898 19 0.883025 18.8233 0.529825 18.4701C0.176608 18.1169 0 17.691 0 17.1923V3.8077C0 3.30898 0.176608 2.88303 0.529825 2.52982C0.883025 2.17661 1.30898 2 1.8077 2H6.2577C6.32052 1.44488 6.56282 0.972776 6.9846 0.583676C7.4064 0.19456 7.91153 0 8.49998 0C9.09484 0 9.60317 0.19456 10.025 0.583676C10.4468 0.972776 10.6859 1.44488 10.7423 2H15.1923C15.691 2 16.1169 2.17661 16.4701 2.52982C16.8233 2.88303 17 3.30898 17 3.8077V17.1923C17 17.691 16.8233 18.1169 16.4701 18.4701C16.1169 18.8233 15.691 19 15.1923 19H1.8077ZM1.8077 17.5H15.1923C15.2692 17.5 15.3397 17.4679 15.4038 17.4038C15.4679 17.3397 15.5 17.2692 15.5 17.1923V3.8077C15.5 3.73077 15.4679 3.66024 15.4038 3.59613C15.3397 3.53203 15.2692 3.49998 15.1923 3.49998H1.8077C1.73077 3.49998 1.66024 3.53203 1.59612 3.59613C1.53202 3.66024 1.49997 3.73077 1.49997 3.8077V17.1923C1.49997 17.2692 1.53202 17.3397 1.59612 17.4038C1.66024 17.4679 1.73077 17.5 1.8077 17.5ZM8.49998 2.84613C8.71664 2.84613 8.89581 2.77529 9.03748 2.63363C9.17914 2.49196 9.24998 2.31279 9.24998 2.09613C9.24998 1.87946 9.17914 1.70029 9.03748 1.55863C8.89581 1.41696 8.71664 1.34613 8.49998 1.34613C8.28331 1.34613 8.10414 1.41696 7.96248 1.55863C7.82081 1.70029 7.74998 1.87946 7.74998 2.09613C7.74998 2.31279 7.82081 2.49196 7.96248 2.63363C8.10414 2.77529 8.28331 2.84613 8.49998 2.84613Z" fill="#2A3B6B"/>
</svg>
