<svg width="15" height="20" viewBox="0 0 15 20" fill="none" xmlns="http://www.w3.org/2000/svg">
<path d="M5.29997 10.9884L6.1269 8.27305L3.95193 6.59613H6.65768L7.49997 3.8923L8.34228 6.59613H11.048L8.85765 8.27305L9.68457 10.9884L7.49997 9.29998L5.29997 10.9884ZM2 19.7307V12.573C1.36667 11.9115 0.875 11.1468 0.525 10.2788C0.175 9.41088 0 8.48459 0 7.49998C0 5.40768 0.726925 3.63461 2.18077 2.18078C3.63461 0.726925 5.40767 0 7.49997 0C9.59227 0 11.3653 0.726925 12.8192 2.18078C14.273 3.63461 15 5.40768 15 7.49998C15 8.48459 14.825 9.41088 14.475 10.2788C14.125 11.1468 13.6333 11.9115 13 12.573V19.7307L7.49997 17.9807L2 19.7307ZM7.49997 13.5C9.16664 13.5 10.5833 12.9166 11.75 11.75C12.9166 10.5833 13.5 9.16664 13.5 7.49998C13.5 5.83331 12.9166 4.41664 11.75 3.24998C10.5833 2.08331 9.16664 1.49998 7.49997 1.49998C5.83331 1.49998 4.41664 2.08331 3.24997 3.24998C2.08331 4.41664 1.49997 5.83331 1.49997 7.49998C1.49997 9.16664 2.08331 10.5833 3.24997 11.75C4.41664 12.9166 5.83331 13.5 7.49997 13.5ZM3.49997 17.5346L7.49997 16.4615L11.5 17.5346V13.8192C10.9295 14.191 10.3051 14.4807 9.6269 14.6884C8.9487 14.8961 8.23972 15 7.49997 15C6.76022 15 6.05125 14.8961 5.37305 14.6884C4.69485 14.4807 4.07049 14.191 3.49997 13.8192V17.5346Z" fill="#2A3B6B"/>
</svg>
