<svg width="25" height="25" viewBox="0 0 25 25" fill="none" xmlns="http://www.w3.org/2000/svg">
<mask id="mask0_940_15" style="mask-type:alpha" maskUnits="userSpaceOnUse" x="0" y="0" width="25" height="25">
<rect x="0.420898" y="0.6875" width="24" height="24" fill="#D9D9D9"/>
</mask>
<g mask="url(#mask0_940_15)">
<path d="M8.6709 9.18745V7.68748H16.1708V9.18745H8.6709ZM7.7286 23.1875C7.22346 23.1875 6.7959 23.0125 6.4459 22.6625C6.0959 22.3125 5.9209 21.8849 5.9209 21.3798V3.9952C5.9209 3.49007 6.0959 3.0625 6.4459 2.7125C6.7959 2.3625 7.22346 2.1875 7.7286 2.1875H17.1131C17.6183 2.1875 18.0458 2.3625 18.3958 2.7125C18.7458 3.0625 18.9208 3.49007 18.9208 3.9952V21.3798C18.9208 21.8849 18.7458 22.3125 18.3958 22.6625C18.0458 23.0125 17.6183 23.1875 17.1131 23.1875H7.7286ZM7.42087 18.9375H17.4209V6.43743H7.42087V18.9375Z" fill="#1E1E1E"/>
</g>
</svg>
