<svg width="13" height="21" viewBox="0 0 13 21" fill="none" xmlns="http://www.w3.org/2000/svg">
<path d="M2.75 6.99995V5.49998H10.25V6.99995H2.75ZM1.8077 21C1.30257 21 0.875 20.825 0.525 20.475C0.175 20.125 0 19.6974 0 19.1923V1.8077C0 1.30257 0.175 0.875 0.525 0.525C0.875 0.175 1.30257 0 1.8077 0H11.1922C11.6974 0 12.125 0.175 12.475 0.525C12.825 0.875 13 1.30257 13 1.8077V19.1923C13 19.6974 12.825 20.125 12.475 20.475C12.125 20.825 11.6974 21 11.1922 21H1.8077ZM1.49997 18.25V19.1923C1.49997 19.2692 1.53203 19.3397 1.59613 19.4038C1.66024 19.4679 1.73077 19.5 1.8077 19.5H11.1922C11.2692 19.5 11.3397 19.4679 11.4038 19.4038C11.4679 19.3397 11.5 19.2692 11.5 19.1923V18.25H1.49997ZM1.49997 16.75H11.5V4.24995H1.49997V16.75ZM1.49997 2.75H11.5V1.8077C11.5 1.73077 11.4679 1.66024 11.4038 1.59613C11.3397 1.53203 11.2692 1.49998 11.1922 1.49998H1.8077C1.73077 1.49998 1.66024 1.53203 1.59613 1.59613C1.53203 1.66024 1.49997 1.73077 1.49997 1.8077V2.75Z" fill="#202020"/>
</svg>
