<svg width="25" height="25" viewBox="0 0 25 25" fill="none" xmlns="http://www.w3.org/2000/svg">
<mask id="mask0_921_55" style="mask-type:alpha" maskUnits="userSpaceOnUse" x="0" y="0" width="25" height="25">
<rect x="0.857422" y="0.972656" width="24" height="24" fill="#D9D9D9"/>
</mask>
<g mask="url(#mask0_921_55)">
<path d="M16.3305 17.4995L17.3843 16.4457L13.6074 12.6686V7.97263H12.1074V13.2765L16.3305 17.4995ZM12.8591 22.4726C11.5451 22.4726 10.3101 22.2233 9.15397 21.7246C7.99782 21.2259 6.99214 20.5492 6.13692 19.6944C5.28169 18.8395 4.60463 17.8343 4.10575 16.6786C3.60686 15.523 3.35742 14.2882 3.35742 12.9743C3.35742 11.6604 3.60676 10.4253 4.10542 9.26921C4.60409 8.11306 5.28084 7.10737 6.13567 6.25216C6.99052 5.39692 7.99576 4.71987 9.1514 4.22098C10.307 3.7221 11.5418 3.47266 12.8557 3.47266C14.1697 3.47266 15.4047 3.72199 16.5608 4.22066C17.717 4.71932 18.7227 5.39607 19.5779 6.25091C20.4331 7.10576 21.1102 8.111 21.609 9.26663C22.1079 10.4222 22.3574 11.657 22.3574 12.971C22.3574 14.2849 22.108 15.5199 21.6094 16.6761C21.1107 17.8322 20.434 18.8379 19.5791 19.6931C18.7243 20.5483 17.719 21.2254 16.5634 21.7243C15.4078 22.2232 14.173 22.4726 12.8591 22.4726Z" fill="#2A3B6B"/>
</g>
</svg>
