<svg width="30" height="30" viewBox="0 0 30 30" fill="none" xmlns="http://www.w3.org/2000/svg">
<path fill-rule="evenodd" clip-rule="evenodd" d="M9 3C5.68629 3 3 5.68629 3 9V21C3 24.3137 5.68629 27 9 27H21C24.3137 27 27 24.3137 27 21V9C27 5.68629 24.3137 3 21 3H9ZM19.1712 8.93505C19.7736 9.61622 20.5768 10.0864 21.4639 10.2769C21.7569 10.339 22.0555 10.3701 22.3548 10.3697V13.4232C20.8346 13.4259 19.3518 12.9498 18.1152 12.0619V18.2938C18.1151 19.4161 17.782 20.5129 17.1585 21.4442C16.5349 22.3755 15.6491 23.0991 14.6142 23.5226C13.5793 23.9461 12.4422 24.0503 11.3481 23.8219C10.254 23.5935 9.25243 23.0428 8.47133 22.2402C7.65226 21.3982 7.11575 20.3201 6.93685 19.1567C6.75794 17.9934 6.94558 16.803 7.47353 15.752C8.00147 14.7011 8.84332 13.8421 9.88131 13.2953C10.9193 12.7485 12.1015 12.5412 13.2626 12.7024V15.8246C12.7419 15.6582 12.182 15.6627 11.664 15.8374C11.1461 16.0122 10.697 16.3481 10.3819 16.7964C10.0669 17.2447 9.9022 17.7822 9.91179 18.3308C9.92138 18.8794 10.1047 19.4108 10.4353 19.8477C10.7608 20.2775 11.2121 20.594 11.726 20.7528C12.2399 20.9117 12.7904 20.9048 13.3001 20.7333C13.8099 20.5617 14.2534 20.234 14.5681 19.7963C14.8829 19.3586 15.0532 18.8328 15.0551 18.2929V6.09677H18.1152V6.49017C18.1988 7.3973 18.5688 8.25389 19.1712 8.93505Z" fill="#FFFDFA"/>
</svg>
